<?xml version="1.0" encoding="utf-8"?>
<!-- Generator: Adobe Illustrator 11.0, SVG Export Plug-In  -->
<!DOCTYPE svg PUBLIC "-//W3C//DTD SVG 1.0//EN"    "http://www.w3.org/TR/2001/REC-SVG-20010904/DTD/svg10.dtd" [
	<!ENTITY ns_flows "http://ns.adobe.com/Flows/1.0/">
	<!ENTITY ns_svg "http://www.w3.org/2000/svg">
	<!ENTITY ns_xlink "http://www.w3.org/1999/xlink">
]>
<svg  xmlns="&ns_svg;" xmlns:xlink="&ns_xlink;" xmlns:a="http://ns.adobe.com/AdobeSVGViewerExtensions/3.0/"
	 width="1296" height="955" viewBox="0.5 0.5 1296 955" xml:space="preserve">
	<defs>
	</defs>
	<g>
		<linearGradient id="XMLID_6_" gradientUnits="userSpaceOnUse" x1="673.3604" y1="167.9707" x2="766.3115" y2="167.9707">
			<stop  offset="0.2514" style="stop-color:#7FBAD3"/>
			<stop  offset="0.7705" style="stop-color:#358FC0"/>
			<a:midPointStop  offset="0.2514" style="stop-color:#7FBAD3"/>
			<a:midPointStop  offset="0.5" style="stop-color:#7FBAD3"/>
			<a:midPointStop  offset="0.7705" style="stop-color:#358FC0"/>
		</linearGradient>
		<path fill="url(#XMLID_6_)" stroke="#000000" d="M673.362,192.004c0.104,1.24,9.047,1.981,11.996,5.236
			c2.952,3.253,4.591,5.043,7.22,5.864c2.632,0.821,12.987,4.593,15.14,1.686c2.154-2.907,3.479-4.521,1.514-6.637
			c-1.967-2.114-4.748-6.338-5.402-7.313c-0.654-0.977,5.756,1.808,11.354,1.832c5.596,0.023,7.898,0.52,9.389-0.932
			c1.488-1.451,1.157-1.292,0.989-0.157c-0.171,1.133-0.346,3.238,0.313,3.728c0.656,0.488,1.469,2.762,4.76,2.938
			c3.295,0.177,8.887,1.497,12.512,0.862c3.623-0.629,2.793,1.311,6.92-1.102c4.125-2.412,4.623-3.383,8.248-3.528
			c3.623-0.146,4.446-0.142,5.598-0.137c1.153,0.005,3.635-2.577,1.664-4.045c-1.97-1.466-6.742-2.297-8.061-1.655
			c-1.318,0.643-7.307,1.806-11.212,3.678c-1.909,0.916-2.981,1.559-4.618,1.762c-2.526,0.314-6.42-1.12-8.393-1.008
			c-1.318,0.075,13.363-6.261,16.684-12.404c2.142-3.959,0.758-3.804,0.184-4.371c-0.465-0.462-0.82-0.491-0.82-0.491
			s0.336-1.618-2.298-2.116c-2.632-0.497-16.794,0.25-19.936,3.478c-3.146,3.226,1.005-4.209,1.511-6.961
			c0.508-2.751,0.35-15.81-1.895-18.315c-1.313-1.465,3.789,1.523,6.088,0.998c3.131-0.716,3.625-0.956,3.467-2.252
			c-0.158-1.3-1.37-6.569-3.586-8.119c-1.982-1.384-4.719-2.255-7.232-3.271c-2.629-1.064-3.283-2.121-4.596-3.1
			c-1.311-0.977-2.133-1.629-2.135-1.143s2.475,3.807,3.603,4.554c0.492,0.324-1.086-0.149-2.137-0.821
			c-1.149-0.732-1.971-1.467-1.971-0.818c-0.005,0.647,1.47,2.601,1.47,2.601s-2.619-3.739-3.441-4.229
			c-0.82-0.489,0.131-2.869-4.099-3.582c-2.466-0.416-2.386-0.901-2.63-0.983c-1.094-0.364-4.769-1.804-6.745-1.649
			c-1.978,0.151-3.3,1.442-4.131,3.385c-0.833,1.94-0.931,5.659-0.938,7.61c-0.008,1.943,0.307,5.022,0.304,5.997
			c-0.004,0.971-0.421,2.103-1.411,2.261c-0.986,0.16-2.301-0.658-2.957-1.47c-0.654-0.814-2.618-3.415-2.611-5.036
			c0.006-1.619,0.209-10.369-0.283-11.019c-0.49-0.65-1.969-1.143-1.837,6.15c0.079,4.238-0.19,0.927-1.226-1.869
			c-0.747-2.015-1.797-3.492-2.374-3.414c-0.899,0.124,0.8,5.918,0.794,7.053c-0.006,1.133-0.369,9.314,0.777,10.453
			c1.147,1.138,3.768,4.472,8.376,4.653c4.609,0.182,4.119-0.304,4.273,1.641c0.157,1.945-1.679,7.769,1.101,11.669
			c2.782,3.9,6.22,8.615,6.877,9.59c0.652,0.975,0.652,0.975,0.652,0.975s-11.52-1.67-14.652-0.549
			c-3.133,1.119-8.063,1.94-8.412,3.689c-0.338,1.67-1.054,2.21,1.133,4.864c2.57,3.129,5.234,7.313,6.715,7.969
			c1.477,0.654,3.941,2.123,5.584,3.265c1.641,1.142,1.967,2.116,1.967,2.116s-4.936-1.158-6.578-1.974
			c-1.645-0.818-5.414-4.561-6.893-5.54c-1.477-0.979-4.267-3.259-6.572-3.27C678.151,189.27,673.259,190.76,673.362,192.004z"/>
		<path fill="none" stroke="#000000" d="M741.759,177.235c0,0-13.635,5.34-16.14,13.593"/>
		<path fill="none" stroke="#000000" d="M692.173,183.174c0,0,8.715,2.63,11.656,7.666"/>
		<path fill="none" stroke="#000000" d="M708.685,134.802c0,0,1.16-1.938,3.136-1.443"/>
		<path fill="none" stroke="#000000" d="M700.111,137.195c0,0,0.831-1.616,2.806-1.283c1.974,0.331,2.135,1.144,2.135,1.144"/>
		<path fill="none" stroke="#000000" d="M708.163,178.708c0,0,4.431,3.259,4.594,4.232"/>
		<path fill="none" stroke="#000000" d="M726.112,177.921c0,0-1.328,2.642-1.33,3.45"/>
		<path fill="none" stroke="#000000" d="M703.705,143.853c0,0,0.47,5.513-1.184,7.124"/>
		<path fill="none" stroke="#000000" d="M726.448,151.459l-6.922-11.1c0,0,5.91,4.339,10.682,5.117"/>
		<path stroke="#000000" d="M713.796,133.205c0,0,1.975,0.009,1.972,1.306C715.759,135.805,713.796,133.205,713.796,133.205"/>
		<circle cx="718.652" cy="152.343" r="1.976"/> 
		<circle cx="711.385" cy="157.173" r="1.646"/> 
		<circle cx="703.466" cy="161.027" r="0.658"/> 
		<path d="M711.657,170.297c-0.007,0.894-1.037,1.617-2.311,1.61c-1.274-0.005-2.303-0.734-2.299-1.63
			c0.004-0.895,1.039-1.616,2.311-1.611C710.634,168.673,711.662,169.404,711.657,170.297z"/>
		<circle cx="720.899" cy="165.477" r="1.975"/> 
		<path d="M724.485,173.757c-0.004,0.984-0.892,1.777-1.985,1.771c-1.091-0.002-1.972-0.805-1.966-1.788s0.893-1.778,1.984-1.772
			C723.608,171.971,724.489,172.771,724.485,173.757z"/>
		<circle cx="712.944" cy="177.107" r="1.318"/> 
		<circle cx="715.209" cy="186.515" r="1.318"/> 
		<circle cx="720.659" cy="182.975" r="1.482"/> 
		<path d="M737.31,177.863c-0.004,1.075-1.703,1.936-3.793,1.929c-2.095-0.01-3.785-0.889-3.781-1.961
			c0.004-1.074,1.705-1.937,3.796-1.928C735.623,175.912,737.315,176.789,737.31,177.863z"/>
		<path d="M743.226,180.804c-0.004,0.719-1.038,1.294-2.313,1.288c-1.271-0.006-2.3-0.591-2.298-1.307
			c0.003-0.716,1.037-1.293,2.311-1.286C742.199,179.505,743.227,180.089,743.226,180.804z"/>
		<path d="M703.376,180.954c0,0.896-1.479,1.615-3.297,1.607c-1.82-0.008-3.291-0.74-3.287-1.635s1.482-1.613,3.301-1.605
			C701.911,179.328,703.382,180.059,703.376,180.954z"/>
		<path d="M707.961,187.293c-0.007,1.342-1.044,2.427-2.317,2.419c-1.271-0.005-2.301-1.098-2.295-2.439
			c0.008-1.342,1.046-2.424,2.318-2.419C706.937,184.859,707.968,185.951,707.961,187.293z"/>
		<circle cx="695.12" cy="186.751" r="2.963"/> 
		<path d="M692.431,199.215c-0.001,0.806-1.037,1.454-2.312,1.448c-1.272-0.005-2.301-0.662-2.298-1.469
			c0.003-0.805,1.039-1.452,2.311-1.447C691.404,197.75,692.434,198.409,692.431,199.215z"/>
		<circle cx="699.826" cy="202.489" r="1.811"/> 
		<path d="M707.901,200.741c0,0.538-0.594,0.97-1.32,0.967c-0.728-0.004-1.316-0.44-1.313-0.979
			c0.001-0.536,0.592-0.969,1.321-0.964C707.316,199.765,707.905,200.204,707.901,200.741z"/>
		<path d="M705.952,194.9c-0.002,0.717-0.375,1.296-0.83,1.293c-0.455-0.004-0.822-0.585-0.816-1.3
			c0.003-0.717,0.375-1.295,0.826-1.293C705.589,193.601,705.954,194.185,705.952,194.9z"/>
		<circle cx="732.324" cy="150.946" r="1.81"/> 
		<circle cx="725.596" cy="145.407" r="1.318"/> 
		<circle cx="725.122" cy="140.706" r="1.152"/> 
		<circle cx="729.559" cy="143.157" r="0.659"/> 
		<circle cx="691.817" cy="151.579" r="2.47"/> 
		<circle cx="688.724" cy="143.302" r="0.33"/> 
		<circle cx="710.268" cy="149.229" r="2.14"/> 
		<circle cx="723.701" cy="189.82" r="1.921"/> 
		<path d="M718.813,190.743c-0.001,0.718-1.257,1.292-2.804,1.286c-1.549-0.009-2.797-0.594-2.792-1.31
			c0.003-0.716,1.257-1.292,2.804-1.284C717.563,189.442,718.815,190.029,718.813,190.743z"/>
		<circle cx="731.51" cy="186.586" r="1.153"/> 
		<path d="M750.737,194.933c-0.002,0.342-1.036,0.611-2.311,0.605c-1.27-0.004-2.301-0.285-2.301-0.625
			c0.002-0.34,1.034-0.611,2.309-0.605C749.707,194.315,750.737,194.595,750.737,194.933z"/>
		<path d="M740.192,196.67c-0.004,0.716-1.112,1.29-2.475,1.286c-1.365-0.007-2.469-0.592-2.465-1.307
			c0.004-0.719,1.109-1.292,2.474-1.287C739.091,195.369,740.195,195.954,740.192,196.67z"/>
		<path d="M684.226,192.862c-0.004,0.714-0.227,1.294-0.496,1.294c-0.276-0.002-0.494-0.584-0.49-1.301
			c0.001-0.715,0.225-1.294,0.499-1.293C684.012,191.563,684.229,192.145,684.226,192.862z"/>
		<path fill="#FFFFFF" stroke="#000000" d="M702.274,137.365c0.072-0.007,0.139-0.008,0.205,0.001l0.154,0.028l0.088,0.025
			c0.082,0.02,0.146,0.047,0.211,0.084c0.229,0.116,0.413,0.306,0.567,0.575c0.138,0.26,0.217,0.537,0.231,0.825l-0.008,0.27
			l-0.016,0.132c-0.068,0.448-0.263,0.807-0.565,1.057c-0.073,0.063-0.155,0.105-0.229,0.15c-0.251,0.133-0.507,0.166-0.789,0.104
			c-0.203-0.047-0.381-0.137-0.541-0.281l-0.22-0.251l-0.095-0.154l-0.053-0.098l-0.045-0.089l-0.07-0.207
			c-0.072-0.269-0.094-0.547-0.051-0.833c0.078-0.447,0.266-0.796,0.574-1.054c0.191-0.161,0.391-0.251,0.611-0.275L702.274,137.365
			z M702.564,137.833l-0.165-0.029l-0.217,0.027c-0.119,0.035-0.236,0.088-0.354,0.188c-0.225,0.187-0.365,0.436-0.416,0.768
			c-0.023,0.16-0.023,0.321,0.002,0.473l0.068,0.235l0.088,0.188l0.129,0.196c0.104,0.119,0.221,0.197,0.36,0.261l0.142,0.039
			c0.264,0.063,0.506,0.001,0.736-0.186c0.223-0.186,0.362-0.448,0.407-0.769c0.03-0.17,0.024-0.322-0.003-0.484
			c-0.023-0.144-0.074-0.276-0.146-0.412c-0.08-0.144-0.185-0.261-0.3-0.341C702.802,137.906,702.689,137.859,702.564,137.833z"/>
		<path fill="#FFFFFF" d="M702.595,137.643c0.154,0.043,0.277,0.084,0.4,0.189c0.137,0.104,0.242,0.229,0.344,0.396
			c0.086,0.145,0.156,0.31,0.172,0.477c0.032,0.166,0.032,0.373,0.018,0.561c-0.073,0.372-0.231,0.663-0.492,0.89
			c-0.263,0.205-0.559,0.287-0.869,0.203l-0.176-0.043c-0.154-0.062-0.295-0.167-0.416-0.291l-0.156-0.23l-0.104-0.206l-0.067-0.292
			c-0.034-0.167-0.032-0.353-0.013-0.537c0.067-0.396,0.227-0.684,0.489-0.892c0.14-0.122,0.277-0.185,0.417-0.227l0.262-0.019
			L702.595,137.643z"/>
		<path fill="#17A4C5" d="M702.519,138.22c0.092,0.025,0.164,0.051,0.233,0.113c0.083,0.064,0.144,0.14,0.204,0.241
			c0.051,0.088,0.092,0.189,0.101,0.29c0.019,0.1,0.019,0.227,0.007,0.338c-0.042,0.228-0.132,0.402-0.286,0.539
			c-0.151,0.126-0.326,0.176-0.511,0.124l-0.1-0.025c-0.092-0.039-0.172-0.1-0.244-0.176l-0.092-0.142l-0.063-0.126l-0.037-0.174
			c-0.021-0.102-0.02-0.216-0.012-0.328c0.045-0.239,0.137-0.413,0.289-0.538c0.082-0.075,0.164-0.113,0.246-0.138l0.154-0.012
			L702.519,138.22z"/>
		<rect x="0.5" y="0.5" fill="none" stroke="#000000" width="1295.809" height="955.437"/> 
	</g>
</svg>
