<?xml version="1.0" encoding="utf-8"?>
<!-- Generator: Adobe Illustrator 11.0, SVG Export Plug-In  -->
<!DOCTYPE svg PUBLIC "-//W3C//DTD SVG 1.0//EN"    "http://www.w3.org/TR/2001/REC-SVG-20010904/DTD/svg10.dtd" [
	<!ENTITY ns_flows "http://ns.adobe.com/Flows/1.0/">
	<!ENTITY ns_svg "http://www.w3.org/2000/svg">
	<!ENTITY ns_xlink "http://www.w3.org/1999/xlink">
]>
<svg  xmlns="&ns_svg;" xmlns:xlink="&ns_xlink;" xmlns:a="http://ns.adobe.com/AdobeSVGViewerExtensions/3.0/"
	 width="1296" height="955" viewBox="1.387 0.5 1296 955" xml:space="preserve">
	<defs>
	</defs>
	<g>
		<path fill="#FFFFFF" stroke="#000000" d="M32.78,508.49c4.239-1.866,8.322-3.716,11.594-5.216
			c4.294-1.968,7.187-3.331,7.187-3.331s5.762-6.914,8.067-9.604c3.131-3.654,6.53-4.225,8.066-4.225
			c1.537,0,3.841,3.457,4.225,4.609c0.384,1.152,3.841-5.378,5.762-5.378c1.921,0,3.073,12.676,2.305,13.828
			c-0.768,1.152,7.683,3.842,8.45,5.762c0.769,1.921,4.226,5.377,5.378,8.45s21.126,10.756,22.663,10.756
			c1.536,0,1.536,3.073,1.152,4.226c-0.384,1.152-3.457,1.92-3.457,1.92s-3.458,6.146-6.53,6.53
			c-3.072,0.384-9.603-0.769-13.06-0.769s-12.292,0.769-13.828,3.072c-1.537,2.306-1.152,3.842-1.152,4.994
			c0,1.153-0.769,4.993-1.921,5.377c-1.152,0.385-2.305,2.689-2.305,2.689l-1.152,3.073c0,0-19.207,16.9-25.736,21.126
			s-21.51,12.292-25.352,13.828c-3.841,1.536-9.602,2.305-12.676,6.146c-3.072,3.841-5.377,11.522-6.53,15.364
			c-1.152,3.841-2.307,20.786-2.307,23.859c0,3.072-0.236-114.829-0.236-114.829c9-2.251,1.85-0.986,11.762-4.291
			C18.014,514.838,25.617,511.643,32.78,508.49z"/>
		<path fill="none" stroke="#000000" d="M65.005,506.474c0,0-3.841,4.225-4.993,0.768s0.768-9.987,1.536-12.676
			c0.769-2.688,4.61-8.45,6.146-8.45"/>
		<path fill="none" stroke="#000000" d="M74.224,494.949c0,0,3.457-6.146,3.841-8.065"/>
		<path fill="none" stroke="#000000" d="M71.919,490.725c0,0,0.384,4.993,0.769,6.914"/>
		<path fill="none" stroke="#000000" d="M73.839,498.022c0,0,2.689-1.152,6.146,1.152"/>
		<path fill="none" stroke="#000000" d="M83.443,536.818c0,0-6.146-1.536-8.451-3.457"/>
		<path fill="none" stroke="#000000" d="M51.945,506.089c0,0,1.152,3.841,6.914,4.609"/>
		<path fill="none" stroke="#000000" d="M58.091,531.056c0,0-3.457,2.689-6.146,3.458"/>
		<path fill="none" stroke="#000000" d="M56.938,540.276c0,0-5.377,4.608-6.914,4.608"/>
		<path fill="none" stroke="#000000" d="M39.27,531.056c0,0-9.987,3.458-9.987,5.379"/>
		<path fill="none" stroke="#000000" d="M46.952,537.587c0,0-8.066,4.608-9.603,5.377"/>
		<path fill="none" stroke="#000000" d="M44.263,542.195c0,0-8.066,4.609-9.603,5.378"/>
		<path fill="none" stroke="#000000" d="M33.508,552.183c0,0-8.066,4.61-9.603,5.378"/>
		<path fill="none" stroke="#000000" d="M81.138,516.46c0,0,3.457,4.993,8.45,5.378"/>
		<path fill="none" stroke="#000000" d="M83.443,527.6c0,0-3.074-0.384-3.841,0.769"/>
		<path fill="none" stroke="#000000" d="M114.939,526.831l-0.768,3.457c0,0-3.841-1.92-3.073-3.457
			c0.769-1.536,0.769-4.226,3.073-3.457"/>
		<path fill="#E4E1D8" d="M113.531,530.288c-1.408-0.896-2.944-2.432-2.944-2.432s-19.846,0.384-31.881-12.933
			c-12.384-13.702-13.189-2.049-12.548,1.921c0.64,3.969,11.139,5.377,14.596,7.298c6.011,3.34,26.504,12.676,32.266,6.913
			L113.531,530.288z"/>
		<path fill="#FFFFFF" stroke="#000000" d="M80.882,512.49c0,0,2.557-0.973,4.097-1.215c1.825-0.289,2.12,0.753,4.61,2.111
			c1.056,0.577-3.33,1.921-4.354,1.921C84.211,515.308,80.882,512.49,80.882,512.49z"/>
		<path fill="none" stroke="#000000" stroke-width="2" d="M111.995,532.337c0,0-6.37,1.632-10.595-0.032
			c-4.226-1.664-10.531-2.4-11.683-2.017"/>
		<path d="M85.459,514.731c-1.113,0-2.016-0.473-2.016-1.057c0-0.582,0.903-1.056,2.016-1.056"/>
		<circle fill="#1A99C4" cx="85.171" cy="513.194" r="1.728"/> 
		<rect id="XMLID_2_" y="445.179" fill="none" width="117.131" height="275.014"/> 
		<rect x="1.578" y="0.5" fill="none" stroke="#000000" width="1295.809" height="955.437"/> 
	</g>
</svg>
