<?xml version="1.0" encoding="utf-8"?>
<!-- Generator: Adobe Illustrator 11.0, SVG Export Plug-In  -->
<!DOCTYPE svg PUBLIC "-//W3C//DTD SVG 1.0//EN"    "http://www.w3.org/TR/2001/REC-SVG-20010904/DTD/svg10.dtd" [
	<!ENTITY ns_flows "http://ns.adobe.com/Flows/1.0/">
	<!ENTITY ns_svg "http://www.w3.org/2000/svg">
	<!ENTITY ns_xlink "http://www.w3.org/1999/xlink">
]>
<svg  xmlns="&ns_svg;" xmlns:xlink="&ns_xlink;" xmlns:a="http://ns.adobe.com/AdobeSVGViewerExtensions/3.0/"
	 width="1296" height="955" viewBox="0.5 0.5 1296 955" xml:space="preserve">
	<defs>
	</defs>
	<g>
		<path fill="#E9BCD9" stroke="#000000" d="M610.507,385.848c0,0,2.371,2.824,3.16,2.231c0.373-0.278-1.021,2.324,0.466,2.139
			c0.721-0.09,0.744-1.859,1.022-1.859c0.279,0-0.093,1.859,0.743,1.859c0.838,0,3.534-1.952,3.534-1.952l-1.859-5.021l-3.348-1.86
			l-4.09,2.697L610.507,385.848z"/>
		<path fill="#8E0F62" stroke="#000000" d="M578.34,392.077c0,0-0.186,7.438,0.372,8.274c0.558,0.837-0.278,3.161-0.464,3.44
			c-0.187,0.279,0.371,7.996,0.371,8.367c0,0.372-4.834,1.859-4.834,1.859s-0.372-1.487,0.186-3.253
			c0.557-1.767,0.186-5.764-0.372-7.625c-0.559-1.859-1.208-8.181-1.766-8.924c-0.559-0.744-0.28-2.046-0.28-2.046l6.695-1.208
			L578.34,392.077z"/>
		<path fill="#8E0F62" stroke="#000000" d="M575.271,356.749c0,0,6.045,0.558,8.739-0.093c2.696-0.65,8.275-2.231,10.042-2.51
			c1.765-0.279,10.876-0.465,12.549-0.465c1.675,0,3.349,1.022,6.044,0c2.696-1.023,5.02-0.279,6.229,0.186s2.975,1.116,4.928,1.58
			c1.952,0.466,8.088,2.882,8.646,3.905c0.557,1.023,1.301,3.347,0.93,7.344c-0.373,3.998-1.488,14.782-1.022,17.386
			c0.464,2.603,1.115,7.623,1.58,9.39c0.465,1.766,1.487,5.578,1.487,5.578s-1.58,4.277-3.533,0.837
			c-1.952-3.439-1.672-6.043-1.672-6.043s0-8.553,0.277-9.482c0.279-0.93,0-8.088,0.559-10.598c0.558-2.511,0.65-5.764,1.116-6.416
			c0.464-0.65-1.675,5.486-2.511,6.88c-0.837,1.394-2.603,4.927-3.347,7.158c-0.744,2.231-1.674,5.95-1.674,7.81
			c0,1.859,0.837,4.648,1.209,5.113c0.371,0.465-3.719,6.322-4.37,7.717c-0.651,1.394-5.579,1.394-5.579,1.394l1.488-6.042
			c0,0-0.65-5.393-0.65-7.624c0-2.231-0.982-6.88-1.952-6.88c-0.373,0-6.508,3.999-8.274,5.021
			c-3.812,2.207-17.478,2.881-18.315,2.417c-0.836-0.465,0.279,5.671-0.464,7.624c-0.744,1.952-1.117,4.741-0.651,5.671
			c0.465,0.929,1.486,6.043,1.486,6.043l-5.391,1.116c0,0,0.836-6.508,0.836-7.438s-2.138-3.161-2.417-4.09
			c-0.277-0.931-0.464-8.646-0.65-9.018c-0.187-0.372-6.787,3.254-7.996,3.439s-4.369-1.673-5.206-2.696s-1.302-2.417-2.324-3.068
			s-0.65-6.043-0.65-6.787s-1.581-2.324-1.581-4.09c0-1.767-1.301-3.347-1.766-5.393s-0.278-11.714-0.278-11.714L575.271,356.749z"
			/>
		<path fill="none" stroke="#000000" d="M561.699,365.302c-0.838,0.836-0.466,0.836-0.466,0.836"/>
		<path fill="none" stroke="#000000" d="M568.578,367.254c0,0,0.279-1.208-0.929-1.766"/>
		<path fill="none" stroke="#000000" d="M566.439,384.082c-0.093-2.79,1.21-8.182,2.604-9.762c1.395-1.58,1.114-5.485,1.114-5.485"
			/>
		<path fill="none" stroke="#000000" d="M566.532,372.553c0,0,0,1.209-0.371,1.674c-0.372,0.465,0.186,3.812,0.186,3.812"/>
		<path fill="none" stroke="#000000" d="M564.674,372.74c0,0-0.465,2.324-0.372,2.789s0.837,3.44,0.465,4.555"/>
		<line fill="none" stroke="#000000" x1="562.722" y1="375.063" x2="564.581" y2="377.295"/>
		<path fill="none" stroke="#000000" d="M575.365,373.483c0,0,0.837,5.485,3.068,7.065c1.578,1.119,1.58,8.089,2.51,9.576"/>
		<path fill="none" stroke="#000000" d="M579.921,387.149c0,0-1.116,0.837-1.952,0.837c-0.837,0-4.556,1.115-5.021,2.696"/>
		<path fill="none" stroke="#000000" d="M613.854,359.724c0,0,3.068,8.925,1.674,11.528"/>
		<line fill="none" stroke="#000000" x1="620.362" y1="363.164" x2="619.711" y2="364.372"/>
		<path fill="none" stroke="#000000" d="M626.87,369.765c0,0-3.068,3.719-5.3,4.09"/>
		<path fill="none" stroke="#000000" d="M623.15,390.218c0,0,0.466,3.254-0.277,4.183"/>
		<path fill="none" stroke="#000000" d="M614.505,382.316c0,0,0.467-3.531-1.209-5.207c-0.278-0.279-3.719,5.578-5.764,8.368
			c-2.045,2.789-5.206,3.347-6.321,3.161"/>
		<path fill="none" stroke="#000000" d="M581.873,358.236c0,0,1.302,1.581,1.766,2.231c0.467,0.65,2.604,2.417,2.511,3.253"/>
		<path fill="#8E0F62" stroke="#000000" d="M583.732,368.184c0,0,2.23,6.136,3.347,7.53c1.115,1.395,2.695,2.139,2.79,3.068
			c0.091,0.93-0.279,3.068-0.651,3.626c-0.372,0.558-1.953,6.042-1.395,7.623"/>
		<path fill="#FCFBFC" stroke="#000000" d="M571.367,353.773c0,0,0.838,0.837,1.395,0.837c0.558,0,2.324-0.744,3.161-1.022
			c0.837-0.279,2.975-0.558,3.998,0.279c1.022,0.836,1.396,3.161,0.557,3.812c-0.837,0.651-3.718,2.697-5.67,1.395
			c-1.953-1.302-3.72-0.93-3.72-0.93L571.367,353.773z"/>
		<path stroke="#000000" d="M559.84,353.959c0,0-0.559,0.465-1.023,0.465c-0.464,0-1.952-1.58-3.719-1.395
			c-1.767,0.186-3.904,1.395-4.091,2.696c-0.186,1.301,1.302,2.881,2.138,2.881c0.838,0,3.72,0.931,4.928-0.371
			c1.209-1.302,1.953-0.837,1.953-0.837L559.84,353.959z"/>
		<path fill="#AFA88B" stroke="#000000" d="M572.297,351.822c0,0,2.589-0.059,5.578-3.348c0.93-1.022,0,2.697-1.768,4.091
			c-1.766,1.395-1.858,1.208-3.717,0.837C570.53,353.03,572.297,351.822,572.297,351.822"/>
		<path fill="#AFA88B" stroke="#000000" d="M561.327,350.52c0,0-3.374,0.728-4.369-3.254c-0.651-2.604-0.838-0.465-0.838-0.465
			s-1.115,5.577,4.091,5.764C565.417,352.75,561.327,350.52,561.327,350.52"/>
		<path fill="#8E0F62" stroke="#000000" d="M571.833,359.259l0.186-2.882c0,0-0.186-2.138,0.187-2.325
			c0.371-0.186,0.649-1.859,0.092-2.23c-0.559-0.372-3.439-2.604-4.556-2.604s-5.299,0.093-6.228,0.837
			c-0.931,0.744-1.024,1.673-1.303,2.51c-0.278,0.837-0.744,1.953-0.744,2.51c0,0.558,0.373,4.742,0.837,5.671
			c0.465,0.929-0.233,4.229,0.651,5.113c0.278,0.279-0.651,3.718-0.651,3.718l0.93,0.651c0,0-0.187,1.766,1.58,2.045
			c1.768,0.279,3.069,0.558,3.626,0c0.558-0.558,1.023-1.581,1.023-1.581s1.395,0.292,1.395-2.882c0-0.279,2.23-5.299,2.23-5.299
			L571.833,359.259z"/>
		<path fill="none" stroke="#000000" d="M567.649,365.488c-1.21-0.558-5.114-1.023-5.95-0.186"/>
		<path fill="none" stroke="#000000" d="M567.091,366.324c0,0-0.93-0.372-1.208,0.651"/>
		<path fill="none" stroke="#000000" d="M562.535,367.161c0,0-0.371-1.395-0.836-1.209"/>
		<path fill="none" stroke="#000000" d="M567.091,367.44c0,0,0.464,1.302,0.092,1.86"/>
		<line fill="none" stroke="#000000" x1="566.347" y1="367.533" x2="566.439" y2="368.928"/>
		<path fill="none" stroke="#000000" d="M564.767,369.207c0,0,1.116-1.302,0.836-1.487"/>
		<path fill="none" stroke="#000000" d="M562.07,368.649c0,0-0.465-1.116-0.465-1.395"/>
		<path fill="none" stroke="#000000" d="M567.741,370.552c0,0-4.185,2.28-6.414-0.412"/>
		<path fill="none" stroke="#000000" d="M571.274,362.141c0,0,0.65,3.254-1.395,5.857"/>
		<path d="M595.632,354.146c3.301,0,12.318-1.069,13.945,0.372c0,0,1.488,2.231,1.023,2.695c-0.465,0.465,0.557,2.046,1.487,2.232
			c0.93,0.186,3.254,6.601,2.975,11.435c-0.278,4.834-10.692,5.856-10.692,6.136c0,0.279-5.948,4.276-7.344,6.508
			c-1.395,2.231-4.834-3.161-5.672-7.066c-0.836-3.905,0.466-12.271-1.114-14.224s-7.206-5.16-5.764-5.485
			C585.796,356.45,593.539,354.146,595.632,354.146z"/>
		<path d="M575.318,373.855c0,0,0.976,3.626,1.116,3.905c0.139,0.279,1.021,2.138,1.395,2.371c0.371,0.232,0.976,0.744,1.162,1.208
			c0.186,0.465,1.254,5.625,1.254,5.625s-0.976,0.744-1.395,0.883c-0.417,0.14-1.534,0.232-1.813,0.279
			c-0.278,0.047-2.882,1.302-3.16,1.581c-0.279,0.279-0.697,0.79-0.79,0.93c-0.093,0.139-2.522,2.459-4.277,1.022
			c-0.512-0.418-1.348-1.44-1.858-2.23c-0.161-0.251-0.42-4.742-0.372-5.439c0.045-0.697,0.186-2,0.231-2.417
			c0.063-0.562,0.512-2.51,0.743-3.254c0.212-0.679,0.605-1.952,0.885-2.557c0.222-0.48,0.231-0.558,0.976-1.487
			C570.053,373.477,575.086,371.345,575.318,373.855z"/>
		<circle cx="561.854" cy="366.433" r="0.402"/> 
		<circle cx="566.611" cy="366.696" r="0.604"/> 
		<path fill="none" stroke="#000000" d="M571.182,355.726c0,0,0-1.487-1.115-1.116c-1.116,0.372-2.046,1.395-2.046,2.696
			c0,1.301,0.371,2.696,0.371,2.696"/>
		<path fill="none" stroke="#000000" d="M561.514,354.796c0,0,1.114,0.279,1.114,2.51"/>
		<path fill="#FFFFFF" stroke="#000000" d="M571.925,357.027c0,0-1.301-0.743-1.486,0.279c-0.187,1.022-0.467,2.789,0.092,2.789
			c0.558,0,1.022,0,1.022,0L571.925,357.027z"/>
		<path fill="#FFFFFF" stroke="#000000" d="M559.746,356.005c0,0,0.93-0.559,1.301,0.372c0.373,0.93,0.467,2.417-0.092,2.604
			c-0.558,0.186-0.93,0.186-0.93,0.186L559.746,356.005z"/>
		<circle fill="#1D60A9" cx="570.902" cy="358.748" r="0.553"/> 
		<circle fill="#1D60A9" cx="560.536" cy="357.864" r="0.566"/> 
		<rect x="0.5" y="0.5" fill="none" stroke="#000000" width="1295.809" height="955.437"/> 
	</g>
</svg>
