<?xml version="1.0" encoding="utf-8"?>
<!-- Generator: Adobe Illustrator 11.0, SVG Export Plug-In  -->
<!DOCTYPE svg PUBLIC "-//W3C//DTD SVG 1.0//EN"    "http://www.w3.org/TR/2001/REC-SVG-20010904/DTD/svg10.dtd" [
	<!ENTITY ns_flows "http://ns.adobe.com/Flows/1.0/">
	<!ENTITY ns_svg "http://www.w3.org/2000/svg">
	<!ENTITY ns_xlink "http://www.w3.org/1999/xlink">
]>
<svg  xmlns="&ns_svg;" xmlns:xlink="&ns_xlink;" xmlns:a="http://ns.adobe.com/AdobeSVGViewerExtensions/3.0/"
	 width="1296" height="955" viewBox="0.309 0.5 1296 955" xml:space="preserve">
	<defs>
	</defs>
	<g>
		<path fill="#E1CD77" stroke="#000000" d="M691.786,301.945c0,0,1.859,4.127,2.059,6.145c0.2,2.017,1.7,1.567,2.044,2.246
			c0.344,0.678,0.867,1.549,2.035,1.624c1.167,0.074,3.334,0.195,3.515-0.151c0.181-0.346,1.13,0.119,1.153-0.63
			s0.163-1.091-0.102-1.278c-0.262-0.187-2.215-1.278-2.719-0.824c-0.504,0.455-0.707-0.027-1.01-0.708
			c-0.302-0.682-0.051-2.236-0.111-2.48c-0.061-0.245,0.018-0.831,0.188-1.301c0.171-0.47,0.504-3.109,0.504-3.109l-3.249-2.275
			l-4.16,0.908l-0.198,1.716"/>
		<path fill="#E4E28F" stroke="#000000" d="M701.761,297.411c0,0,2.173-2.742,2.206-3.786c0.035-1.044,4.643-1.711,4.643-1.711
			s-3.043,7.227-5.191,8.062C703.021,300.128,701.761,297.411,701.761,297.411z"/>
		<path fill="#D5765C" stroke="#000000" d="M658.252,315.838c0,0-1.208,0.063-1.678-0.366c-0.47-0.43-1.487-1.501-1.519-1.904
			c-0.031-0.402,2.032-6.226,2.414-6.505c0.341-0.249,2.473-1.002,2.983-2.039c0.509-1.036,1.537-2.609,1.557-2.767
			c0.018-0.156-1.877,1.455-2.025,1.559c-0.147,0.105-3.863,3.509-3.863,3.509s-2.201,2.07-3.686,2.188
			c-1.484,0.115-2.66,0.208-3.051-0.01c-0.39-0.218-1.29-0.583-1.647-1.178c-0.358-0.594-0.78-1.214-0.805-1.928
			c-0.024-0.714,0.008-1.09-0.064-1.613c-0.071-0.523-0.118-1.515,0.163-2.284c0.282-0.769,0.136-1.441,0.219-1.573
			c0.083-0.131,0.3,1.438,0.3,1.438s1.487-2.45,3.896-1.892l-1.939,0.65c0,0,2.924-0.92,4.686,1.436
			c0.418,0.559-1.332-0.331-1.332-0.331l1.42,1.04l-1.164-0.158c-0.857,0.191-1.697,0.974-2.516,1.659
			c-0.277,0.234-1.258,0.224-1.258,0.224s-1.155,0.339-1.192,0.653c-0.038,0.314-0.112,1.347,0.026,1.523
			c0.138,0.176,0.623,1.196,1.432,1.194c0.809-0.001,2.246,0.074,3.871-1.019s5.168-4.326,6.466-6.419
			c1.298-2.093,4.354-4.791,4.7-5.129c0.347-0.338,3.832-2.696,5.057-3.352c1.225-0.657,6.137-1.882,7.394-2.136
			c1.255-0.255,6.963-1.667,7.515-1.772c0.552-0.105,2.395-0.406,2.719-0.649c0.322-0.243,1.68-1.189,1.819-1.792
			s0.466-0.41,0.452-1.374c-0.014-0.963,0.064-1.561,0.232-1.792c0.169-0.231-0.309,0.429-0.309,0.429s-0.067-0.461,0.236-0.953
			c0.305-0.49,1.275-1.593,1.275-1.593l-1.086,0.428c0,0,1.033-0.704,2.336-3.139c1.302-2.436,2.407-4.607,2.457-4.766
			c0.05-0.16,0.078-0.598,0.246-0.829c0.168-0.23,1.723-0.655,3.445-1.32c1.721-0.664,2.186-1.456,2.186-1.456l-0.561,0.581
			c0,0,0.825-0.607,1.063-0.75s1.19-0.52,2.125-0.5c0.903,0.019,1.289,0.299,1.5,0.625c0.213,0.326,0.712-0.148,0.723-0.025
			c0.01,0.124-0.051-0.65-0.051-0.65s0.715,1.189,0.741,1.529c0.027,0.34,0.243,1.506,0.243,1.506l0.268-0.55
			c0,0-0.148,0.883-0.101,1.097s0.157,0.423,0.157,0.423s0.45,0.182,0.925,0.674c0.474,0.492,0.727,0.939,0.727,0.939
			s0.833,0.757,1.341,0.872c0.434,0.099,2.212,0.955,2.262,1.2s-0.225,0.525-0.244,0.682c-0.019,0.157,0.096,1.207-0.201,1.385
			c-0.298,0.179,0.388,0.669,0.414,1.01c0.027,0.34-0.176,1.751-0.384,1.861c-0.21,0.109-0.986,0.813-1.493,0.697
			c-0.508-0.116,0.043,0.152,0.043,0.152s-0.778-0.001-1.04-0.167c-0.263-0.166,0.106,0.178,0.106,0.178s-0.482-0.211-0.744-0.377
			c-0.263-0.166-0.078,0.193-0.078,0.193s-0.533-0.456-0.738-0.689s-0.465-0.369-0.646-0.292c-0.181,0.077-0.339,0.431-0.259,0.674
			c0.082,0.242,0.473,1.27,1.711,1.981c1.238,0.712,1.223,1.304,1.25,1.645c0.026,0.34,0.029,0.776,0.029,0.776l-0.639-1.008
			c0,0,0.344,0.813,0.441,1.676c0.1,0.863,0.674,5.797,0.543,6.522c-0.129,0.726-0.984,2.909-1.162,3.016
			c-0.179,0.107,0.338-1.239,0.338-1.239s-2.156,2.976-2.797,2.428c-0.1-0.085,0.937-2.344,0.937-2.344l0.062-1.996
			c0,0-1.803,3.595-2.482,4.053s0.539-1.847,0.539-1.847l-1.003,1.884l-0.038-3.264c0,0-1.639,3.572-2.531,4.617
			c-0.143,0.167,2.344,4.11,3.018,5.146c0.672,1.036,1.008,1.352,0.957,1.885c-0.053,0.533-1.431,4.069-2.166,4.526
			c-0.86,0.534-5.324,1.941-6.337,0.528c-1.204-1.68-0.588-1.337-0.431-1.522c0.113-0.133-0.196-0.715-0.01-0.932
			c0.284-0.334,1.183-0.777,1.642-0.875c0.272-0.059,1.622-0.346,2.196,0.231c0.371,0.374,0.445,0.121,0.433-0.033
			c-0.013-0.155,0.347-0.743-0.082-1.052c-0.429-0.309-3.638-1.551-4.62-2.562c-0.98-1.012-1.596-1.306-1.596-1.306
			c-3.525,0.276-3.398,0.298-7.75-0.045c-1.947-0.154-5.672-0.115-6.361-0.186c0,0-0.01,1.868-0.098,1.937s-1.212,2.397-1.654,2.711
			c-0.441,0.315-1.602,2.18-1.57,2.582c0.031,0.402,0.033,1.21,0.756,1.714c0.725,0.503,1.602,0.963,2.207,0.76
			c0.606-0.203,1.125-0.741,1.286-0.661s1.847,1.722,1.785,2.131c-0.062,0.41-0.47,0.753-0.624,0.765
			c-0.155,0.012-1.187,0.746-2.01,0.562c-0.824-0.184-1.902,0.741-2.652,0.301c-0.75-0.439-0.859-0.244-0.859-0.244
			s-5.686-4.252-5.748-5.056c-0.063-0.804,0.828-2.523,0.623-3.16c-0.205-0.637-1.467-2.437-1.467-2.437s-2.031,1.871-2.789,2.117
			c-0.759,0.247-1.838,1.171-2.719,1.054c-0.88-0.118-4.367,1.835-5.043,2.729c-0.677,0.894-1.188,1.121-1.211,1.62
			c-0.023,0.5,0.116-0.103,0.549-0.137c0.434-0.034,1.285,0.522,1.299,0.676c0.045,0.588,0.658,0.478,0.795,2.209
			c0.021,0.278-0.463,0.441-0.711,0.46C660.704,315.366,660.069,316.006,658.252,315.838z"/>
		<path fill="none" stroke="#000000" d="M658.204,314.101c0,0-0.132-1.669,0.797-1.742"/>
		<path fill="none" stroke="#000000" d="M678.316,314.265c0,0-0.248-1.576,0.724-1.88c0.972-0.305,1.015-0.536,1.496,0.035"/>
		<path fill="none" stroke="#000000" d="M679.997,311.893c0,0,0.56-0.791,1.265-0.534"/>
		<path fill="#E3E27A" stroke="#000000" d="M667.127,299.338c0,0-2.617,3.13-2.274,3.539c0.343,0.408,2.058,0.834,2.428,0.806
			c0.372-0.029,2.944-0.542,3.177-0.748C670.69,302.729,667.127,299.338,667.127,299.338z"/>
		<path fill="#E1DF7D" stroke="#000000" d="M680.589,298.817c0,0,2.371-1.501,5.995-0.53c3.622,0.971,5.818,1.994,7.055,1.897
			l1.281,1.516c0,0-4.021,0.294-4.401,0.221c-1.349-0.263-9.657-0.436-9.657-0.436L680.589,298.817z"/>
		<path opacity="0.5" fill="#C4530C" stroke="#000000" d="M706.637,271.533c0,0-0.061-0.585-0.391-1.471
			c-0.552-1.481-0.617-1.063-0.617-1.063s-1.387-0.234-2.383-0.249c-1.553-0.023-2.693,1.018-3.25,1.063
			c-0.557,0.043,0.438,0.375,0.438,0.375s-4.953,1.752-5.75,2.313c-0.539,0.379-2.953,5.741-3.485,6.094s-1.036,1.077-1.036,1.077
			l0.842-0.377c0,0-1.51,2.172-1.471,2.667c0.039,0.495,0.409-0.343,0.409-0.343s-0.158,1.941-0.349,2.703
			c-0.189,0.762-0.464,1.219-0.464,1.219l0.708-0.491l-0.45,1c3.086-0.897,3.239-1.416,3.837-1.857
			c0.111-0.082-0.215,0.57-0.082,0.536c1.188-0.311,1.643-0.737,1.83-0.859c0.326-0.212,0.886-0.598,0.886-0.598l0.677-1.298
			c0,0,0.145,1.561,0.852,2.625c0.705,1.065-1.459,2.951-1.416,3.507c0.044,0.557-0.705,2.645-0.676,3.016
			c0.028,0.372,2.338,1.661,2.338,1.661l3.322-0.554l5.277-2.054c0,0,0.477,0.522,0.453,1.022c-0.022,0.5,0.549-1.724,0.549-1.724
			s0.642,1.817,0.676,2.25c0.033,0.433,0.317-0.709,0.317-0.709s0.3,0.661,0.334,1.094c0.034,0.433,0.827-0.563,0.888-1.376
			s0.349,0.471,0.349,0.471s-0.046-5.348-0.306-6.262c-0.258-0.913-0.258-0.913-0.258-0.913l0.512,0.956l-0.236-1.413
			c0,0-2.849-2.203-2.83-2.765c0.018-0.562-0.656,0.363-0.289,1.08c0.367,0.719-1.224-0.526-1.224-0.526s-2.624-1.723-2.923-3.94
			c-0.298-2.216,0.073-2.246,0.073-2.246s0.622-0.795,0.759-1.428c0.137-0.634,0.334-2.08,0.572-2.223
			c0.238-0.144,0.934-0.452,1.352-0.23c0.356,0.19,0.281,0.414,0.695,0.537C706.057,271.933,706.783,272.207,706.637,271.533z"/>
		<path fill="none" stroke="#000000" d="M701.158,310.109c0,0,0.932,0.982,0.28,1.596"/>
		<path fill="none" stroke="#000000" d="M659.328,311.767c0,0,1.186-0.747,2.039,0.602"/>
		<path fill="none" stroke="#000000" d="M659.001,312.359c0.927-0.073,1.595,0.497,1.815,1.724"/>
		<path fill="none" stroke="#000000" d="M680.531,312.35c0.475,0.5,0.784,1.283,0.749,1.621"/>
		<path fill="none" stroke="#000000" d="M681.262,311.359c0.709,0.307,1.48,1.408,1.593,2.053"/>
		<path opacity="0.5" fill="none" stroke="#000000" d="M709.975,277.253c0,0-0.186-0.451,0.26-0.533
			c0.445-0.082,0.862,0.041,1.131,0.192c0.268,0.149,0.373,0.141,0.447,0.135"/>
		<circle cx="710.702" cy="277.563" r="0.403"/> 
		<path opacity="0.5" fill="none" stroke="#000000" d="M708.846,278.492c0,0,1.08,1.252,2.559,1.075"/>
		<path d="M705.443,275.183c0,0,0.852-0.658,1.241-0.642s1.003,0.684,1.235,0.868c0.232,0.184-0.178,0.123-0.178,0.123
			s-0.635-0.37-0.85-0.524C706.678,274.853,705.838,275.059,705.443,275.183z"/>
		<path fill="#6D4E09" d="M706.061,275.641c0,0,0.572-0.859,1.217-0.348c0.291,0.23,0.25,0.7,0.262,0.854
			C707.539,276.147,707.005,276.267,706.061,275.641z"/>
		<circle fill="#2089B4" cx="706.84" cy="275.625" r="0.343"/> 
		<circle cx="706.905" cy="275.627" r="0.148"/> 
		<rect x="0.5" y="0.5" fill="none" stroke="#000000" width="1295.809" height="955.437"/> 
	</g>
</svg>
