<?xml version="1.0" encoding="utf-8"?>
<!-- Generator: Adobe Illustrator 11.0, SVG Export Plug-In  -->
<!DOCTYPE svg PUBLIC "-//W3C//DTD SVG 1.0//EN"    "http://www.w3.org/TR/2001/REC-SVG-20010904/DTD/svg10.dtd" [
	<!ENTITY ns_flows "http://ns.adobe.com/Flows/1.0/">
	<!ENTITY ns_svg "http://www.w3.org/2000/svg">
	<!ENTITY ns_xlink "http://www.w3.org/1999/xlink">
]>
<svg  xmlns="&ns_svg;" xmlns:xlink="&ns_xlink;" xmlns:a="http://ns.adobe.com/AdobeSVGViewerExtensions/3.0/"
	 width="1296" height="955" viewBox="0.309 0.937 1296 955" xml:space="preserve">
	<defs>
	</defs>
	<g>
		<path fill="#998F62" stroke="#000000" d="M1165.619,823.383c-0.353-0.04-0.869,0.096-0.869,0.694c0,0.491-0.029,1.07-0.493,1.447
			c-0.481,0.392-1.488,0.086-1.938,0.346c-0.384,0.224,0.006,0.695-0.434,1.043c-0.978,0.769-2.548,0.375-3.561,0.347
			c-2.866-0.082-13.023-7.293-14.586-8.508c-1.563-1.216-23.962-0.695-30.038-4.688c-6.078-3.993-10.419-14.759-12.328-17.71
			c-1.91-2.952-6.599-17.19-6.599-22.052c0-4.863-0.174-9.551,0.348-12.328c0.52-2.778-0.869-2.778-2.604-4.688
			c-1.737-1.91,1.735-9.55,4.688-11.808c2.95-2.258,7.64-2.083,8.507-3.473c0.868-1.389,1.91-6.771,1.042-9.028
			c-0.867-2.258-9.549-5.036-10.592-19.795c0,0-1.563-15.627-0.868-17.884c0.695-2.258,0.695-2.779,0.695-3.646
			c0-0.869-1.91-6.078-1.563-7.12c0.348-1.042,2.779-6.597,3.82-6.597c1.042,0,3.819-0.695,4.34-0.521
			c0.521,0.174,0.521-0.869,2.605-0.695s0.174-5.209,0.695-6.945c0.52-1.736,1.909-2.951,1.909-3.473
			c0-0.521-1.39-7.293-2.084-10.592s-0.521-6.076,0.521-7.292s1.042-5.557,2.778-8.683c1.735-3.125,3.646-4.861,6.944-6.598
			c3.3-1.736,15.281-7.813,19.448-7.813s6.597,0.173,9.549,1.563c2.952,1.389,13.371,4.861,19.1,16.843
			c5.731,11.98-0.693,17.885-0.867,19.968c-0.174,2.084-0.348,4.515,0.867,5.558c1.217,1.041,7.641,8.16,9.551,17.363
			c1.91,9.201,0.521,7.813,1.736,10.244c1.215,2.43,5.383,5.556,5.383,9.723c0,4.168,2.432,15.28,0.868,24.83
			c-1.563,9.55-6.945,10.592-6.945,10.592s-2.431,8.855-2.431,10.766c0,0,3.299,4.167,4.167,6.945
			c0.868,2.777,4.688,12.675,4.515,16.147c-0.174,3.474-0.695,18.405,0.174,22.573c0.867,4.167-0.521,6.945-2.952,7.467
			c-2.431,0.521-3.994,0-3.994,0s-0.173,1.91-0.867,2.604c-0.694,0.695-9.839,5.702-11.402,6.049
			c-1.563,0.347,4.428,4.573,4.603,5.614c0.173,1.042,0.953,1.997,0.229,2.836C1166.587,823.123,1166.139,823.439,1165.619,823.383z
			"/>
		<linearGradient id="XMLID_16_" gradientUnits="userSpaceOnUse" x1="1151.0908" y1="808.9131" x2="1164.5752" y2="808.9131">
			<stop  offset="0" style="stop-color:#6B502C"/>
			<stop  offset="1" style="stop-color:#5A4120"/>
			<a:midPointStop  offset="0" style="stop-color:#6B502C"/>
			<a:midPointStop  offset="0.5" style="stop-color:#6B502C"/>
			<a:midPointStop  offset="1" style="stop-color:#5A4120"/>
		</linearGradient>
		<path opacity="0.7" fill="url(#XMLID_16_)" stroke="#000000" d="M1164.575,805.15c0,0-3.423,1.115-4.168,1.558
			c-2.709,1.604-8.638,5.218-9.316,5.967"/>
		
			<radialGradient id="XMLID_17_" cx="1117.0859" cy="660.7432" r="3.0818" fx="1117.0859" fy="660.7432" gradientUnits="userSpaceOnUse">
			<stop  offset="0.2595" style="stop-color:#060606"/>
			<stop  offset="0.6973" style="stop-color:#AA5015"/>
			<a:midPointStop  offset="0.2595" style="stop-color:#060606"/>
			<a:midPointStop  offset="0.5" style="stop-color:#060606"/>
			<a:midPointStop  offset="0.6973" style="stop-color:#AA5015"/>
		</radialGradient>
		<circle fill="url(#XMLID_17_)" stroke="#000000" cx="1117.086" cy="660.744" r="3.038"/> 
		
			<radialGradient id="XMLID_18_" cx="1108.0576" cy="713.4072" r="2.3501" fx="1108.0576" fy="713.4072" gradientTransform="matrix(1 0 0 0.8819 0 30.8735)" gradientUnits="userSpaceOnUse">
			<stop  offset="0.1027" style="stop-color:#060606"/>
			<stop  offset="0.627" style="stop-color:#AA5017"/>
			<a:midPointStop  offset="0.1027" style="stop-color:#060606"/>
			<a:midPointStop  offset="0.5" style="stop-color:#060606"/>
			<a:midPointStop  offset="0.627" style="stop-color:#AA5017"/>
		</radialGradient>
		<ellipse fill="url(#XMLID_18_)" stroke="#000000" cx="1108.058" cy="660.027" rx="1.129" ry="2.757"/> 
		<path fill="#8C7A60" d="M1105.656,651.599c0,0,1.92-0.396,5.324,1.273c3.067,1.506,5.324-0.463,8.536-0.377
			c2.148,0.059,3.387,1.303,3.993,4.168c0.271,1.273,1.327,3.566,0.521,6.164c-0.896,2.895-5.902,3.994-6.338,3.646
			c-1.007-0.806,2.345-2.431,2.952-3.213c0.607-0.781,1.796-5.237-0.521-6.337c-2.088-0.993-1.677-1.968-6.887-1.39
			c-0.949,0.105-2.46,0.956-4.283-0.404c-1.878-1.402-1.1-1.621-3.066-0.984"/>
		<path fill="#8C7A60" d="M1113.18,692.692c0,0,9.811-1.303,10.157-0.607s-1.909,6.164-4.08,7.293
			c-2.171,1.128-4.557,2.64-5.73,2.17c-1.736-0.694-3.473-4.08-3.473-4.08C1110.4,696.513,1112.919,693.04,1113.18,692.692z"/>
		<path fill="#8C7A60" d="M1109.583,681.033c0,0-1.604,1.118-1.437,1.636c0.17,0.516,0.845,1.635-0.084,1.635
			c-0.928,0-3.714-1.119-4.221-0.774s-0.93,1.55-1.098,1.979c-0.169,0.43-2.194-0.774-3.123-0.774s-0.929-0.688-1.604,0.774
			c-0.675,1.463-0.253,3.443,0.169,4.304c0.421,0.86,0.676,1.808,1.014,2.237c0.338,0.431,5.317,9.469,5.317,12.223
			s-2.025,1.808-2.955,3.013c-0.928,1.205-2.109,5.681-1.097,7.574c1.014,1.894,1.183,7.401,2.532,9.037
			c1.352,1.636,10.385,9.898,10.637,13.342c0.254,3.442,3.461,7.746,3.461,9.123s1.098,7.23-0.844,7.058
			c-1.94-0.172-6.753-5.336-9.454-5.508c-2.702-0.173-9.202,2.323-9.455,4.39c-0.254,2.065,0.169,7.144-2.195,5.594
			c-2.363-1.549-2.971-2.215-2.195-4.604c0.345-1.062,2.603-6.12,4.774-7.64c2.604-1.823,8.178-2.446,8.769-4.167
			c0.592-1.722,1.896-7.753,0.608-8.943c-3.386-3.124-6.722-6.836-7.313-8.128c-0.421-0.92-1.899-1.646-3.02-11.058
			c-0.451-3.805-1.34-10.196-1.041-16.757c0.087-1.909,0.854-4.305,0.781-5.035c-0.087-0.867-1.898-6.173-1.477-7.292
			c0.422-1.12,2.426-5.409,3.386-5.73c0.521-0.174,4.24-0.778,4.915-0.435C1104.011,678.451,1105.888,677.761,1109.583,681.033z"/>
		<path fill="#8C7A60" d="M1127.764,698.771c0,0-2.689,0,2.866,0.173c5.556,0.175,6.858-1.216,10.938-0.173
			c4.08,1.041,4.776,2.951,6.078,7.205c1.303,4.254,0,10.071-0.521,10.852c-0.521,0.782-5.991,24.483-7.293,26.827
			c-1.303,2.344-6.252,12.675-7.987,12.85c-1.736,0.174-9.897,2.344-11.374,0.607c-1.475-1.736-2.086-3.568-3.211-3.646
			c-2.52-0.174-4.024-15.512-3.734-16.408c0.291-0.897,7.207-28.043,6.164-29.258c-1.041-1.216-0.348-2.952-2.69-4.428
			c-2.345-1.476-3.386-2.257-3.386-2.257s6.685-8.422,8.768-6.859c2.084,1.563,3.994,3.039,4.602,4.168
			C1127.591,699.551,1127.764,698.771,1127.764,698.771z"/>
		<path fill="#8C7A60" d="M1096.424,758.326c0,0,2.777,2.431,2.777,5.384c0,2.95-0.26,11.721,0.175,14.063
			c0.434,2.345,3.211,15.193,4.688,17.276c1.477,2.084,2.171,7.032,4.342,9.203c2.169,2.171,0.867,5.035,0.867,5.035
			s-5.441-10.018-6.338-11.286c-1.041-1.476-4.08-7.466-4.774-11.373c-0.295-1.659-2.83-10.331-2.865-11.547
			c-0.086-3.038-0.346-10.085,0.435-14.237c0.261-1.39-1.217-2.258-1.737-2.865c-0.52-0.607-1.562-1.215-1.475-2.431
			C1092.554,755.028,1095.99,756.156,1096.424,758.326z"/>
		<path fill="#985A2D" d="M1110.836,658.53c0,0,0.217,1.692,0.65,2.777c0.435,1.086,0.695,3.125,0.391,3.82
			c-0.303,0.694,0.348,2.865,0.088,3.387c-0.262,0.521-0.218,4.166-0.825,4.34s-2.301,0.738-2.821,0.738
			c-0.521,0-1.606,0.348-1.824,0c-0.217-0.348-0.606-3.039-0.391-3.516c0.217-0.479,1.606-2.908,1.954-3.387
			c0.348-0.478,2.063-2.16,2.517-2.865C1111.443,662.479,1110.922,659.876,1110.836,658.53z"/>
		<path fill="#8C7A60" d="M1154.508,779.51c0,0,0.266-26.219-1.724-28.302c-1.989-2.084-3.579-8.683-4.772-1.042
			c-1.193,7.64-4.773,22.225-5.701,24.656c-0.929,2.431-1.591,9.202-1.06,10.418C1141.781,786.455,1152.652,788.365,1154.508,779.51
			z"/>
		<path fill="#8C7A60" d="M1111.617,750.86c0,0,5.035,16.495,7.813,19.447c2.777,2.952-3.474,14.238,3.299,14.759
			c6.772,0.521,9.029-2.604,5.556-9.376c-3.473-6.772-5.035-9.724-6.598-11.287c-1.563-1.562-6.425-11.459-7.64-12.849"/>
		<path opacity="0.7" fill="none" stroke="#000000" d="M1112.832,688.872c0,0-2.432-2.777-4.167-3.646"/>
		<path opacity="0.7" fill="none" stroke="#000000" d="M1114.741,686.442c0,0-2.43-2.605-3.819-3.126"/>
		<path opacity="0.7" fill="none" stroke="#000000" d="M1112.479,690.761c0,0-4.855-2.062-6.591-3.277"/>
		<path fill="#8C7A60" d="M1137.314,699.391c0,0,16.383-7.579,18.81-7.218c2.427,0.36,1.214,7.939,3.337,10.467
			c2.124,2.526,5.157,6.497,5.461,10.828c0.305,4.332,1.821,5.414,0.911,6.136c-0.911,0.723,1.213-6.857-17.292-3.248
			c-18.507,3.609-8.192,0-8.192,0L1137.314,699.391z"/>
		<path opacity="0.8" fill="none" stroke="#5A4120" d="M1106.929,672.638c0,0,3.472-1.302,3.734-1.042
			c0.259,0.261-0.348,1.476-0.869,1.476s-1.216,0.262-1.216,0.262"/>
		<path opacity="0.8" fill="none" stroke="#5A4120" d="M1107.276,670.294c0,0,3.646-1.303,4.08-1.041"/>
		<path opacity="0.8" fill="none" stroke="#000000" d="M1110.228,656.489c0,0,0.608,6.425,0.088,7.032
			c-0.521,0.608-2.432,2.519-2.519,2.778"/>
		<path fill="none" stroke="#000000" d="M1112.485,656.229c0,0,4.456-0.984,5.325-0.289c0.868,0.693,2.604,1.446,3.009,2.025"/>
		<path fill="none" stroke="#000000" d="M1109.013,655.998c0,0-1.274-1.332-1.736-1.447c-0.463-0.116-0.927-0.405-1.216,0"/>
		<path fill="none" stroke="#000000" d="M1140.904,775.285c1.852-3.01,6.924-20.418,7.64-25.467c0.751-5.295,1.533-5.47,4.63-7.408
			c2.906-1.818,8.16-0.486,10.649,0.927c3.009,1.707,8.393,9.434,8.393,9.434"/>
		<path fill="none" stroke="#000000" d="M1158.498,773.433c0,0,2.779,16.9,1.854,18.059"/>
		<path fill="none" stroke="#000000" d="M1105.453,742.353c0,0,7.438,0.058,9.059,8.16c1.62,8.104,10.187,15.28,14.585,25.004"/>
		<path fill="#754727" stroke="#000000" d="M1109.187,679.323c0,0,9.482,2.27,9.725,2.973c0.241,0.705-2.251,2.583-2.813,2.583"/>
		<path opacity="0.3" fill="none" stroke="#442510" d="M1113.585,648.067c0,0,2.198-3.24,4.978-4.861"/>
		<path opacity="0.3" fill="none" stroke="#442510" d="M1117.405,648.3c0,0,3.124-4.168,7.64-6.135"/>
		<path opacity="0.3" fill="none" stroke="#442510" d="M1119.72,650.151c0,0,1.853-2.893,4.862-3.009"/>
		<path opacity="0.3" fill="none" stroke="#442510" d="M1125.16,637.419c0,0,9.608-6.482,13.66-6.598"/>
		<path opacity="0.3" fill="none" stroke="#442510" d="M1114.741,642.976c0,0,5.788-7.524,10.883-9.029"/>
		<path opacity="0.3" fill="none" stroke="#442510" d="M1127.938,642.743c0,0,8.683-5.557,13.892-6.25"/>
		<path opacity="0.3" fill="none" stroke="#442510" d="M1131.064,646.448c0,0,9.493-6.367,14.469-5.788"/>
		<path opacity="0.7" fill="none" stroke="#000000" d="M1126.318,673.535c0,0,3.82,3.356,2.083,5.325"/>
		<path fill="none" stroke="#000000" d="M1145.823,804.514c0,0-7.467-1.041-12.676-2.604s-7.466-10.938-10.766-12.328"/>
		<path opacity="0.3" fill="none" stroke="#442510" d="M1108.67,647.841c0,0,1.862-4.865,5.662-7.995"/>
		<path opacity="0.3" fill="none" stroke="#442510" d="M1117.242,635.499c0,0,9.344-6.581,14.334-6.116"/>
		<path opacity="0.5" fill="none" stroke="#000000" d="M1146.777,803.473c0,0,6.772-6.946,9.029-7.901s6.946-1.824,7.814-1.824
			s10.136,8.419,10.07,11.896c-0.087,4.601-15.243,10.434-16.321,10.765c-1.129,0.349-3.994,1.39-5.209,0.521
			c-0.552-0.395,0.607-2.258,0.607-2.258s-3.258,1.885-3.819,1.042c-0.694-1.042,0.926-2.373,1.881-2.894s-3.704,1.331-4.139,0.028
			c-0.435-1.302,0.694-2.517,1.823-3.038c1.128-0.521-3.473,0.782-3.734-0.607c-0.259-1.389,1.65-2.345,1.997-2.778
			C1147.126,805.99,1146.17,804.427,1146.777,803.473z"/>
		<path opacity="0.7" fill="none" stroke="#000000" d="M1160.669,798.09c0,0-2.519,0.433-3.472,0.781
			c-0.956,0.347-9.753,6.163-10.361,7.378"/>
		<path opacity="0.7" fill="none" stroke="#000000" d="M1163.882,801.562c0,0-3.792,1.013-4.573,1.62
			c-1.066,0.831-9.858,5.514-10.504,6.483"/>
		<path opacity="0.7" fill="none" stroke="#000000" d="M1165.502,807.64c0,0-3.219,1.295-3.955,1.7
			c-2.565,1.412-8.374,4.656-8.778,5.331"/>
		<path opacity="0.7" fill="none" stroke="#000000" d="M1159.337,817.045c0,0,5.297,6.164,6.338,6.251"/>
		<path opacity="0.7" fill="none" stroke="#000000" d="M1157.398,819.04c0,0,5.469,6.165,6.337,6.165"/>
		<path opacity="0.7" fill="none" stroke="#000000" d="M1152.335,819.013c0,0,8.16,7.379,9.115,7.379"/>
		<path fill="#998F62" stroke="#000000" d="M1169.148,721.342c-0.993-0.914-2.316-4.254-4.861-5.092
			c-2.782-0.917-18.985,1.408-20.837,1.389c-2.75-0.029-9.434-2.721-11.807-2.548c-1.921,0.142-3.645,2.065-6.02,1.622
			c-2.634-0.492-9.969-1.117-11.344-0.927c-1.882,0.261-9.262,5.325-9.724,6.482c-0.405,1.015,0.968,3.099,1.001,4.376
			c0.003,0.18-0.018,0.344-0.074,0.486c-0.464,1.157-0.232,2.547,0.694,3.704c0.925,1.157,4.167,0.231,3.473,0.463
			c-0.695,0.231-0.464,2.547,0.463,3.936c0.925,1.389,4.167-0.463,4.167-0.463s-0.463,0.694-0.463,1.389
			c0,0.695,1.39,2.084,2.777,1.853c1.391-0.232,8.565-5.325,11.344-5.557s13.37,3.906,19.621,5.989
			c6.251,2.085,17.116,4.343,19.736,4.66c3.097,0.376,7.641-1.62,7.641-1.62s5.873-1.91,6.395-8.422"/>
		<path opacity="0.7" fill="none" stroke="#000000" d="M1111.008,722.558c0.521-0.521-4.773,2.951-5.207,3.56
			c0,0,4.253-3.56,5.729-4.08"/>
		<path opacity="0.7" fill="none" stroke="#000000" d="M1119.69,731.848c0,0-5.849,2.917-6.076,3.473"/>
		<path fill="none" stroke="#000000" d="M1103.195,677.499c0,0,2.951,0.088,4.167,1.216c1.216,1.129,8.683,4.255,8.248,6.599
			s-3.386,2.864-3.212,3.646c0.094,0.424,0.162,1.029,0.08,1.801c-0.069,0.646-2.474,0.309-2.83,1.18
			c-0.781,1.909,0.378,3.992-0.23,4.166c-0.607,0.175,0.636,1.969,0.81,2.402c0.173,0.435,2.084,3.56,2.952,3.82"/>
		<path fill="none" stroke="#000000" d="M1112.572,691.13c1.823,0.434,10.678,0.26,12.328-1.477
			c1.649-1.735,2.083-3.385,2.083-3.385s-0.521,2.518,0.521,3.038c1.041,0.521,4.167,2.257,6.338,1.129c0,0,0.81-0.116,2.199-1.505"
			/>
		<path opacity="0.7" fill="none" stroke="#000000" d="M1115.089,672.203c0,0,2.345,2.345,5.47,3.3"/>
		<path opacity="0.7" fill="none" stroke="#000000" d="M1115.003,669.858c0,0,3.3,2.953,5.035,3.647"/>
		<path opacity="0.7" fill="none" stroke="#000000" d="M1115.957,668.297c0,0,3.386,2.69,4.776,3.386"/>
		<path opacity="0.7" fill="none" stroke="#000000" d="M1113.787,728.114c0.521-0.521-4.774,2.952-5.209,3.56
			c0,0,4.254-3.56,5.73-4.081"/>
		<path fill="#98592E" stroke="#6C4825" d="M1150.512,652.322c0,0,2.864-5.991,5.99-6.771c3.125-0.781,10.678-1.042,10.938-0.087
			c0.26,0.955-0.435,14.759-1.996,15.975c-1.563,1.215-1.65,5.99-4.602,7.466c-2.953,1.476-6.512,1.649-7.9,0
			c-1.39-1.649-2.865-0.954-2.952-2.952C1149.904,663.956,1150.512,652.322,1150.512,652.322z"/>
		<path fill="none" stroke="#74502A" d="M1153.202,653.712c0,0,8.25-3.786,6.859,5.816c-0.869,5.99-3.56,5.383-4.949,4.602"/>
		<path fill="none" stroke="#74502A" d="M1152.769,652.149c0,0,1.563-3.039,3.646-3.126"/>
		<rect x="0.5" y="0.5" fill="none" stroke="#000000" width="1295.809" height="955.437"/> 
	</g>
</svg>
