<?xml version="1.0" encoding="utf-8"?>
<!-- Generator: Adobe Illustrator 11.0, SVG Export Plug-In  -->
<!DOCTYPE svg PUBLIC "-//W3C//DTD SVG 1.0//EN"    "http://www.w3.org/TR/2001/REC-SVG-20010904/DTD/svg10.dtd" [
	<!ENTITY ns_flows "http://ns.adobe.com/Flows/1.0/">
	<!ENTITY ns_svg "http://www.w3.org/2000/svg">
	<!ENTITY ns_xlink "http://www.w3.org/1999/xlink">
]>
<svg  xmlns="&ns_svg;" xmlns:xlink="&ns_xlink;" xmlns:a="http://ns.adobe.com/AdobeSVGViewerExtensions/3.0/"
	 width="1296" height="955" viewBox="0.309 0.5 1296 955" xml:space="preserve">
	<defs>
	</defs>
	<g>
		<path stroke="#000000" d="M834.261,856.676c0,0-0.516,2.453,0,2.453s3.613,3.483,3.613,3.483l0.904-0.517
			c0,0-2.969-2.581-2.969-3.482c0-0.904,1.162-5.421,1.162-5.421L834.261,856.676z"/>
		<path stroke="#000000" d="M838.52,853.063c0,0-0.389,2.192,0.388,2.968c0.775,0.773,3.614,3.871,4.13,3.871
			c0.515,0-0.646-1.42-0.646-1.42s-2.321-2.193-2.321-4.903C840.069,850.868,838.52,853.063,838.52,853.063z"/>
		<path stroke="#000000" d="M843.424,851.255c0,0,1.55,0.774,1.935,0.904c0.39,0.128,1.162,2.192,0.518,3.354
			c-0.646,1.162,0.258,2.066,0.258,2.066s0.387-3.097,0.516-4.001c0.13-0.904-2.193-3.227-2.193-3.227L843.424,851.255z"/>
		<path stroke="#000000" d="M841.1,852.287c0,0,1.551,2.324,2.195,2.711c0.646,0.387,1.033,0.646,1.033,0.646l0.646-1.161
			l-1.163-0.26l-1.807-2.838L841.1,852.287z"/>
		<path fill="#E1BC11" stroke="#000000" d="M820.192,870.873c0,0-3.871-4.775-1.935-10.066c1.935-5.293,3.483-7.743,7.872-10.841
			c4.388-3.1,7.742-3.1,7.742-3.1s5.293,3.1,3.874,6.067c-1.42,2.969-6.964,8.537-8.906,9.679c-2.193,1.292-5.163,2.711-6.97,4.131
			C819.918,868.277,821.354,870.357,820.192,870.873z"/>
		<path fill="#E1BC11" stroke="#000000" d="M835.166,844.803c0,0-2.454,2.063-1.681,5.032c0.775,2.968,3.486,3.874,6.326,2.968
			c2.839-0.901,4.517-2.063,5.162-3.74c0.644-1.679,1.676-4.518,0.902-5.035C845.102,843.512,838.907,840.543,835.166,844.803z"/>
		<path fill="#E1BC11" stroke="#000000" d="M846.006,843.512c0,0-1.291,2.064-1.162,2.97c0.13,0.902,0.646,2.322,1.29,2.839
			c0.646,0.515,2.453,2.709,2.453,2.709l0.773-0.774l0.646,0.517c0,0,1.677-4.905,0.772-6.453
			C849.878,843.771,849.36,842.995,846.006,843.512z"/>
		<circle stroke="#000000" cx="848.587" cy="846.674" r="1.548"/> 
		<path fill="none" stroke="#000000" d="M850.007,843.771c0,0,4.13-1.549,5.162-1.163c1.032,0.388,0.646,0.904,0.646,1.42"/>
		<path fill="none" stroke="#000000" d="M850.651,844.673c0,0,3.354-1.806,3.743,1.678"/>
		<path fill="#F22E30" stroke="#000000" d="M842.133,845.448c0,0-13.68-0.903-16.262-3.742c-2.581-2.84-1.032-6.455-0.128-6.455
			c0.903,0-4.26-11.098-1.42-11.356c2.839-0.259,7.228,1.031,7.484,1.678c0.259,0.646,0.387-4.13,2.195-3.872
			c1.807,0.259,10.195,14.456,8.519,20.521c-1.68,6.065-0.904,0.258-0.904,0.258"/>
		<path d="M821.493,854.508c0,0,0.102,6.805,1.727,7.414s0.711-3.758,0.609-4.773s-0.305-4.773-0.305-4.773"/>
		<path d="M825.118,851.258c0,0,0.102,6.805,1.727,7.414s0.711-3.758,0.609-4.773s-0.305-4.773-0.305-4.773"/>
		<path d="M829.361,848.967c0,0-1.045,7.003,0.521,7.903c1.565,0.9,1.364-3.737,1.431-4.798c0.068-1.06,0.493-4.952,0.493-4.952"/>
		<path fill="none" stroke="#000000" d="M840.809,843.5c0,0-9.75-7.25-12-7.5s-3.065-0.749-3.065-0.749"/>
		<path fill="none" stroke="#000000" d="M842.309,841.25c0,0-11.002-12.105-10.501-15.678"/>
		<rect x="0.5" y="0.5" fill="none" stroke="#000000" width="1295.809" height="955.437"/> 
	</g>
</svg>
