<?xml version="1.0" encoding="utf-8"?>
<!-- Generator: Adobe Illustrator 11.0, SVG Export Plug-In  -->
<!DOCTYPE svg PUBLIC "-//W3C//DTD SVG 1.0//EN"    "http://www.w3.org/TR/2001/REC-SVG-20010904/DTD/svg10.dtd" [
	<!ENTITY ns_flows "http://ns.adobe.com/Flows/1.0/">
	<!ENTITY ns_svg "http://www.w3.org/2000/svg">
	<!ENTITY ns_xlink "http://www.w3.org/1999/xlink">
]>
<svg  xmlns="&ns_svg;" xmlns:xlink="&ns_xlink;" xmlns:a="http://ns.adobe.com/AdobeSVGViewerExtensions/3.0/"
	 width="1296" height="955" viewBox="0.5 0.5 1296 955" xml:space="preserve">
	<defs>
	</defs>
	<g>
		<path fill="#FFFFFF" stroke="#000000" d="M450.024,327.354c0,0-0.341,1.45,0.085,1.535c0.427,0.086,1.792,1.878,1.792,2.133
			c0,0.256-0.512,2.304-0.512,2.304s1.878,4.948,1.621,6.228c-0.255,1.28,0.427,1.28,0.086,1.792s-0.683,0.597-0.683,0.938
			s-0.427,2.133-1.366,2.218c-0.938,0.085-0.17,1.109-2.645,1.279c-2.475,0.171-2.73-1.279-2.986-1.45
			c-0.256-0.171-6.912-3.413-7.167-3.839c-0.257-0.427-2.219-0.939-1.621-6.826c0.597-5.887,1.621-9.471,1.621-9.471
			s7.251-0.938,8.788-0.17C448.574,324.794,450.024,326.672,450.024,327.354z"/>
		<path fill="#D3CFBC" stroke="#000000" d="M434.582,355.595c0,0-2.73,11.604-1.792,13.225c0.938,1.621,0.854,2.73,0.854,2.73
			s-0.854,0.427-0.085,0.938c0.768,0.512,2.9,2.218,2.729,2.901s-2.56,1.45-3.413,0.768c-0.853-0.683-2.645-2.304-2.815-2.731
			c-0.17-0.426-0.513-0.597-1.536-1.365s-1.535-0.938-1.279-2.048c0.256-1.109,0.683-0.768,0.256-1.109s-0.427-1.024-0.171-1.365
			c0.257-0.341,0.171-10.665,0.257-10.92C427.67,356.363,434.24,353.377,434.582,355.595z"/>
		<path fill="#D3CFBC" stroke="#000000" d="M409.924,349.452c0,0-0.853,2.56-0.853,4.01s-0.513,5.205-0.086,5.887
			s0.256,3.242,0.769,3.242c0.511,0,1.535,0.512,1.535,0.854s-0.255,0.683,0.342,1.024s1.876,1.451,1.876,2.133
			c0,0.682-1.363,3.583-3.839,1.706c-2.474-1.877-2.729-2.474-3.156-2.56c-0.428-0.086-1.707-1.365-1.707-2.133
			c0-0.768-0.342-1.023-0.427-1.876c-0.084-0.854,0.513-1.536,0.599-1.963c0.084-0.426-1.452-3.157-1.621-4.096
			c-0.171-0.938-0.428-5.204-0.428-5.204l1.366-3.413C404.294,347.063,410.265,346.978,409.924,349.452z"/>
		<path stroke="#000000" d="M449,326.33c0,0,0.854,1.366,1.536,0.854c0.683-0.512-0.427-2.73-1.024-2.815
			c-0.597-0.085,0.853-0.683,0.512-1.451c-0.341-0.768-2.816-3.412-3.413-3.412c-0.597,0-1.962,0.34-2.218,0.34
			c-0.255,0-1.962-2.389-3.668-1.792s-2.389,1.536-2.389,1.536s-1.535-0.597-2.56-0.597c-1.024,0-2.303-0.17-3.328,0.512
			c-1.024,0.682-1.536,1.45-1.621,2.047c-0.085,0.597-1.365-0.768-2.729-0.598c-1.366,0.17-1.621-1.707-2.815-1.707
			c-1.195,0-3.755,0.086-4.693-0.255c-0.938-0.342-1.45-2.816-3.498-2.901c-2.048-0.086-3.412-0.854-5.374-1.707
			c-1.963-0.853-1.366-1.877-3.328-1.365c-1.963,0.512-3.754-1.195-4.522-1.024c-0.768,0.17-3.071,1.194-3.584,2.56
			c-0.511,1.365-2.814,2.304-3.412,2.304c-0.597,0-3.327,0.597-3.668,2.815c-0.342,2.219-2.475,1.962-2.561,3.328
			c-0.085,1.365-0.938,3.839-0.512,4.437c0.427,0.597-0.512,1.109-0.512,1.707c0,0.597,0.683,1.706,0.683,1.706
			s0.513,1.707,0.341,2.304c-0.17,0.598,1.024,2.645,1.878,2.645s2.645-0.341,2.645-0.341s0.768,1.024,1.023,1.621
			c0.256,0.598,1.109,2.219,0.427,2.646c-0.683,0.426-2.303,2.133-3.071,1.962c-0.768-0.17-1.45,2.048-1.45,3.327
			c0,1.28,0.938,3.584,1.535,4.095c0.598,0.512,1.024,3.669,1.024,4.352s0.768,3.328,0.768,4.522c0,1.195,0,6.058,0,6.058
			s-1.023,0.085-1.194,0.512c-0.171,0.426-0.427,1.962,0.171,2.048c0.598,0.084,0.938,0.597,1.023,1.279
			c0.085,0.683,0.768,1.195,1.109,1.451c0.341,0.256,1.194,0.256,1.194,0.256s1.109,2.986,2.303,2.986
			c1.195,0,4.438,0.597,4.438-0.341c0-0.939-2.389-3.328-2.389-3.328s-0.427-0.256-0.598-1.536s-0.341-2.047-0.683-2.645
			c-0.341-0.597-1.023-1.023-1.023-1.706c0-0.683,0.511-10.324,1.535-11.433s2.304-0.853,4.352-1.536
			c2.047-0.683,2.39-1.28,2.39-1.28s1.023,2.048,1.876,1.536c0.854-0.512,1.707,1.706,2.816,1.28
			c1.108-0.427,1.45,1.024,2.133,0.683c0.683-0.342,1.024,1.023,1.963,0.597c0.938-0.426,1.279,0.256,1.535,0.512
			s1.279,1.707,1.279,2.815c0,1.109-0.342,4.949-0.853,5.887c-0.513,0.939-0.854,2.048-0.598,3.157
			c0.257,1.109,0.769,2.048,0.938,2.56c0.17,0.512-0.768,1.621-0.598,2.218c0.171,0.598,0.683,1.11,1.28,1.792
			c0.598,0.683-0.768,1.195-0.513,2.218c0.256,1.024,1.963,1.536,2.391,2.048c0.426,0.512-0.257,1.621,0.255,2.303
			c0.512,0.683,1.535,1.963,2.56,2.133s5.376,1.024,3.839-1.622c-1.534-2.645-1.961-2.729-2.047-4.009
			c-0.085-1.28-0.171-3.243-0.598-3.925c-0.426-0.683-0.853-3.754-0.256-6.911c0.597-3.157,0.512-6.484,1.366-7.167
			c0.852-0.683,5.033-0.512,5.887-0.597s3.669-0.256,4.095-1.621c0.426-1.365-0.17-2.133,0.768-2.816
			c0.938-0.682,1.962-2.303,1.962-3.241c0-0.939,0.683-0.342,1.876-1.11c1.195-0.768,1.451-1.707,1.451-2.048
			c0-0.341,1.707-0.682,1.962-0.938c0.256-0.256,0.768-0.938-0.171-1.536c-0.938-0.598-3.498-2.133-4.522-2.219
			c-1.023-0.085-1.792,0.427-1.876-0.341c-0.086-0.768-0.086-0.853-0.683-1.45c-0.598-0.598-0.938-1.024-0.598-1.536
			c0.342-0.512,0.086-0.768,0.086-1.451c0-0.682,0.085-1.365,0.597-1.792c0.512-0.426,1.792-2.132,1.707-2.9
			c-0.085-0.768-1.024-1.279-1.194-1.792c-0.171-0.512,0.938-0.854,0.938-1.963c0-1.108,0-2.388,0-2.388s1.962,0.17,2.56-0.427
			c0.597-0.597,1.194,0.171,1.621,0.171c0.426,0,1.108-0.597,1.108-0.597s0.683,1.194,1.024,1.194s0.768-0.597,0.768-0.597
			s0.939,1.024,1.877,0.768C449,325.392,449,326.33,449,326.33z"/>
		<circle fill="#FFFFFF" stroke="#000000" cx="442.495" cy="332.122" r="1.792"/> 
		<path fill="none" stroke="#000000" d="M435.18,326.501c0,0,1.194,1.023,0.34,1.877c-0.854,0.853-1.365,1.365-1.707,1.109
			c-0.341-0.256-0.853,0.341-0.683,1.621c0.172,1.28,0.683,3.071-0.597,3.157c-1.28,0.085-2.815-1.621-2.815-2.73
			c0-1.109-0.428-3.583,0.084-3.925c0.513-0.341,2.049-1.962,2.39-2.303c0.342-0.342,0.683,0,0.683,0"/>
		<path fill="none" stroke="#000000" d="M427.5,324.112c0,0-1.365,0.256-1.451,0.938"/>
		<path fill="none" stroke="#000000" d="M424.77,324.794c0,0-0.256,0.256-0.256,0.938"/>
		<path fill="none" stroke="#000000" d="M393.543,324.283c0,0-1.194,1.877-0.683,2.73c0.513,0.853,0.854,0.427,0.854,0.427
			s-0.598,2.73-0.257,3.242c0.342,0.512,2.389,1.962,2.219,4.437"/>
		<path fill="none" stroke="#000000" d="M407.962,340.323c0,0-1.364,1.792-3.754,0.768"/>
		<path fill="none" stroke="#000000" d="M404.635,342.626c0,0-2.474,0.341-3.242-0.341"/>
		<path fill="none" stroke="#000000" d="M420.504,353.974c0,0-0.512,1.792,0.171,2.389"/>
		<path fill="none" stroke="#000000" d="M421.954,354.06c0,0,0.854,2.303,1.963,2.56"/>
		<path fill="none" stroke="#000000" d="M435.094,348.001c0,0-2.049,3.669-2.986,3.669c-0.938,0,1.195,2.815-2.389,2.73"/>
		<path fill="none" stroke="#000000" d="M435.52,350.22c0,0-0.682,1.792-2.133,1.792"/>
		<path fill="none" stroke="#000000" stroke-width="2" d="M434.496,353.121c0,0-0.768,0.512-1.535,0.512"/>
		<path fill="none" stroke="#000000" d="M433.644,356.277c0,0-4.353-0.085-5.632,0.085"/>
		<path fill="none" stroke="#000000" d="M442.772,343.821c0,0-2.133,1.109-2.987,0.427c-0.853-0.683,0.171,1.706-2.985-0.938"/>
		<path fill="none" stroke="#000000" d="M432.705,342.456c0,0-1.706-1.792-1.451-3.072"/>
		<path fill="none" stroke="#000000" d="M435.094,344.759c0,0-1.535,0.597-2.219-0.341"/>
		<path fill="none" stroke="#000000" d="M440.554,346.209c0,0-1.109,1.024-2.816,0"/>
		<path fill="none" stroke="#000000" d="M433.813,340.835c0,0-0.853-1.792-0.853-2.304"/>
		<path fill="none" stroke="#000000" stroke-width="2" d="M452.84,340.578c0,0-1.023,1.622-1.962,1.537s-3.839-1.707-4.096-1.707"/>
		<path fill="none" stroke="#000000" stroke-width="2" d="M450.707,342.541l-0.341,2.048c0,0-1.877,0.512-2.816,0.256"/>
		<circle fill="#18A6C3" cx="442.517" cy="332.825" r="1.621"/> 
		<path fill="none" stroke="#000000" d="M410.504,326.788c0,0-0.504,2.195-3.103,2.249"/>
		<path fill="none" stroke="#000000" d="M408.423,330.259c0,0-2.111,1.332-3.093,1.027"/>
		<path fill="none" stroke="#000000" d="M422.501,328.467c0,0-2.112,1.332-3.094,1.027"/>
		<path fill="none" stroke="#000000" d="M443.647,330.362c0,0-0.128-0.192,0.576-0.832"/>
		<path fill="none" stroke="#000000" d="M442.751,330.042c0,0,0.512-1.152,1.023-1.408"/>
		<path fill="none" stroke="#000000" d="M442.239,329.85c0,0-0.384-0.64,0.128-1.28"/>
		<path fill="none" stroke="#000000" d="M441.407,330.362c0,0-0.383-0.768-0.127-1.408"/>
		<path fill="none" stroke="#000000" d="M440.959,331.13c0,0-0.512-0.256-0.576-0.768"/>
		<path fill="none" stroke="#000000" d="M451.802,330.913c0,0-0.078-0.119,0.356-0.514"/>
		<path fill="none" stroke="#000000" d="M451.25,330.714c0,0,0.316-0.71,0.632-0.868"/>
		<path fill="none" stroke="#000000" d="M450.934,330.596c0,0-0.236-0.394,0.079-0.789"/>
		<path fill="none" stroke="#000000" d="M450.421,330.913c0,0-0.237-0.474-0.08-0.869"/>
		<path fill="none" stroke="#000000" d="M450.146,331.385c0,0-0.316-0.158-0.355-0.473"/>
		<circle fill="#FFFFFF" stroke="#000000" cx="451.037" cy="332.004" r="0.928"/> 
		<circle fill="#18A6C3" cx="451.049" cy="332.419" r="0.84"/> 
		<path fill="none" stroke="#000000" d="M432.064,369.57c0,0-2.47,0.371-3.246-0.302"/>
		<path fill="none" stroke="#000000" stroke-width="2" d="M425.666,375.712c0,0-2.47,0.372-3.246-0.302"/>
		<path fill="none" stroke="#000000" d="M409.028,363.17c0,0-2.47,0.372-3.246-0.301"/>
		<path fill="none" stroke="#000000" stroke-width="2" d="M401.094,368.29c0,0-2.47,0.372-3.246-0.301"/>
		<path fill="none" stroke="#000000" d="M399.302,363.426c0,0-2.47,0.372-3.246-0.301"/>
		<path fill="none" stroke="#000000" d="M408.048,348.769c0,0,2.389-2.56,2.217-4.607"/>
		<path fill="none" stroke="#000000" d="M426.477,357.216c0,0,2.389-2.56,2.218-4.607"/>
		<rect x="0.5" y="0.5" fill="none" stroke="#000000" width="1295.809" height="955.437"/> 
	</g>
</svg>
