<?xml version="1.0" encoding="utf-8"?>
<!-- Generator: Adobe Illustrator 11.0, SVG Export Plug-In  -->
<!DOCTYPE svg PUBLIC "-//W3C//DTD SVG 1.0//EN"    "http://www.w3.org/TR/2001/REC-SVG-20010904/DTD/svg10.dtd" [
	<!ENTITY ns_flows "http://ns.adobe.com/Flows/1.0/">
	<!ENTITY ns_svg "http://www.w3.org/2000/svg">
	<!ENTITY ns_xlink "http://www.w3.org/1999/xlink">
]>
<svg  xmlns="&ns_svg;" xmlns:xlink="&ns_xlink;" xmlns:a="http://ns.adobe.com/AdobeSVGViewerExtensions/3.0/"
	 width="1296" height="955" viewBox="0.5 1.1 1296 955" xml:space="preserve">
	<defs>
	</defs>
	<g>
		<path fill="#FFFFFF" stroke="#000000" d="M399.9,570.5c0,0-49.6,8.6-58.2-6.5c-2.2-3.8,32.9,6.5,59.3-3.2
			c6.4-2.4,10.8-3.2,10.8-3.2l-0.5,10.2L399.9,570.5z"/>
		<path fill="none" stroke="#000000" d="M447.8,454.1c0,0,47.4-17.8,52.8-19.9"/>
		<path fill="none" stroke="#000000" d="M589,446.6c0,0,15.1,16.2,15.1,24.2c0,8.1-44.2,93.7-67.9,89.4"/>
		<path fill="none" stroke="#000000" d="M488.8,467c0,0-10.2,8.6-11.3,12.4"/>
		<path fill="none" stroke="#000000" d="M459.7,512.3c0,0,3.8,3.2,9.2,5.4"/>
		<path fill="none" stroke="#000000" d="M432.7,547.8c0,0-4.8,6.5-1.1,8.6"/>
		<path fill="none" stroke="#000000" d="M470.4,532.2c0,0-8.1,8.6-11.3,15.1c-3.2,6.5-9.2,11.9-11.9,11.9"/>
		<path fill="#D3A7C9" stroke="#000000" d="M546.4,680.9c-6.5,1.1-17.8-1.1-22.6-4.8c-4.8-3.8,6.5-17.2,10.2-21s0.5-11.9,0.5-11.9
			s-1.1-16.2-1.1-19.4c0-3.2-6.5-32.3-9.2-40.4c-2.7-8.1-1.6-38.3-5.9-38.3c-4.3,0-8.6-7.5-8.6-7.5l17.8-29.1l45.8,27.5l1.1,139
			L546.4,680.9z"/>
		<line fill="none" stroke="#000000" x1="400.1" y1="597.2" x2="414.1" y2="598.3"/>
		<line fill="none" stroke="#000000" x1="395.9" y1="607.9" x2="406.7" y2="607.9"/>
		<line fill="none" stroke="#000000" x1="321.1" y1="637.7" x2="323.8" y2="632.4"/>
		<ellipse fill="#333333" stroke="#000000" cx="465.9" cy="509.1" rx="6.2" ry="3.2"/> 
		<path fill="none" stroke="#000000" d="M590,504.2c0,0,17.2,13.5,21.6,47.9"/>
		<path fill="none" stroke="#000000" d="M592.2,500.4c0,0,9.7,7.5,12.4,17.2"/>
		<path fill="none" stroke="#000000" d="M598.7,499.9c0,0,12.4,16.2,14.5,31.2"/>
		<path fill="none" stroke="#000000" d="M505.5,478.4c0,0-1.1,15.1,7.5,22.1"/>
		<path fill="none" stroke="#000000" d="M602.4,542.5c0,0-5.9,34.5-7.5,40.4"/>
		<path fill="#D3A7C9" stroke="#000000" d="M688.1,616.3c0,0-2.2,18.9-2.7,24.2c-0.5,5.4-5.4,24.2-7.5,24.2
			c-2.2,0-13.5-0.5-17.2-0.5s-4.8-0.5-4.8-8.1c0-7.5,9.2-17.2,9.2-17.2s2.2-13.5,2.2-21.6c0-8.1-9.7-29.1-9.7-29.1l25.3-18.3
			l28,22.6L688.1,616.3z"/>
		<path fill="#EBC3DC" stroke="#000000" d="M588.4,446.6c0,0,44.7-3.8,50.1-8.1c5.4-4.3,29.6-1.6,32.9-1.1c3.2,0.5,15.6,3.2,35,28
			c19.4,24.8,31.8,31.8,31.8,52.3c0,20.5-8.1,53.3-10.2,54.4c-2.2,1.1-13.5,28.6-13.5,35c0,6.5,0,39.3,0.5,45.3
			c0.5,5.9,5.4,14.5,5.4,18.9c0,4.3-4.3,6.5-7,7c-2.7,0.5-23.7,3.2-29.6,0.5c-5.9-2.7-8.1-9.2-4.3-15.1c3.8-5.9,8.6-45.3,8.6-45.3
			s-9.7-27.5-14-30.2c-4.3-2.7-4.3-2.7-4.3-2.7s-26.9,4.8-36.1,4.8c-9.2,0-33.4-5.4-36.6-7.5c-3.2-2.2-8.1,19.4-10.2,20.5
			c-2.2,1.1-2.7,10.2-5.4,19.9c-2.7,9.7-1.1,31.8-0.5,33.9c0.5,2.2,1.6,14.5,1.1,17.2c-0.5,2.7,3.8,9.2,3.8,11.3
			c0,2.2-1.6,9.2-1.6,9.2s-13.5,7.5-26.4,5.4c-12.9-2.2-18.3-4.8-17.2-7c1.1-2.2,6.5-15.1,10.8-16.2c4.3-1.1,3.8-26.4,3.2-32.9
			c-0.5-6.5-9.7-61.4-8.6-63.6c1.1-2.2-14.5-26.4-19.9-33.9s-7-17.2-9.2-16.2c-2.2,1.1-7,8.1-15.1,10.2c-8.1,2.2-28.6,7.5-33.4,8.1
			c-4.8,0.5-18.3,11.9-18.3,16.7s-4.3-3.2-4.3-3.2s-17.2,15.1-19.9,16.2c-2.7,1.1-10.2,28.1-15.2,34.6c-1.3,1.7-12.2,8.6-21,8
			c-17.1-1.1-36.6-5-40-4c-3.8,1.1-6.4,1.2-12.5,8.8c-2,2.5-8.5,17.8-8.5,17.8l-11.5,1c0,0,1.5-26,9.5-34.5c11.5-12.2,37.6-5,53.4-5
			c10.6,0,15.2-6.7,15.6-8c3-11,2.2-45.5,9.8-60.6s24.2-40.4,28-50.6c3.8-10.2,4.8-23.7,13.5-30.2c8.6-6.5,23.7-25.3,30.2-28
			c6.5-2.7,21,3.8,23.2,5.4c2.2,1.6,17.2-5.9,24.8-4.8C532.4,429.3,576,437.9,588.4,446.6z"/>
		<path fill="#FFFFFF" stroke="#000000" d="M434.3,553.8l15.6,0.5c0,0-36.4,57.6-100.2,29.6C341.1,580.2,415.5,590.4,434.3,553.8z"
			/>
		<path fill="none" stroke="#000000" d="M447.8,454.1c0,0,47.4-17.8,52.8-19.9"/>
		<path fill="none" stroke="#000000" d="M589,446.6c0,0,15.1,16.2,15.1,24.2c0,8.1-44.2,93.7-67.9,89.4"/>
		<path fill="none" stroke="#000000" d="M488.8,467c0,0-10.2,8.6-11.3,12.4"/>
		<path fill="none" stroke="#000000" d="M459.7,512.3c0,0,3.8,3.2,9.2,5.4"/>
		<path fill="none" stroke="#000000" d="M432.7,547.8c0,0-4.8,6.5-1.1,8.6"/>
		<path fill="none" stroke="#000000" d="M470.4,532.2c0,0-8.1,8.6-11.3,15.1c-3.2,6.5-9.2,11.9-11.9,11.9"/>
		<line fill="none" stroke="#000000" x1="400.6" y1="593.9" x2="415.1" y2="595.7"/>
		<line fill="none" stroke="#000000" x1="399.5" y1="599.9" x2="409.6" y2="603.8"/>
		<line fill="none" stroke="#000000" x1="392.9" y1="606.9" x2="401.9" y2="613.8"/>
		<line fill="none" stroke="#000000" x1="385.8" y1="609.4" x2="390.9" y2="617.1"/>
		<line fill="none" stroke="#000000" x1="320.7" y1="639.8" x2="327.7" y2="639.8"/>
		<ellipse fill="#333333" stroke="#000000" cx="465.9" cy="509.1" rx="6.2" ry="3.2"/> 
		<path fill="none" stroke="#000000" d="M590,504.2c0,0,17.2,13.5,21.6,47.9"/>
		<path fill="none" stroke="#000000" d="M592.2,500.4c0,0,9.7,7.5,12.4,17.2"/>
		<path fill="none" stroke="#000000" d="M598.7,499.9c0,0,12.4,16.2,14.5,31.2"/>
		<path fill="none" stroke="#000000" d="M505.5,478.4c0,0-1.1,15.1,7.5,22.1"/>
		<path fill="none" stroke="#000000" d="M602.4,542.5c0,0-5.9,34.5-7.5,40.4"/>
		<line fill="none" stroke="#000000" x1="322.2" y1="628.7" x2="331.4" y2="630"/>
		<line fill="none" stroke="#000000" x1="322.2" y1="634.6" x2="328.9" y2="635.5"/>
		<rect x="0.5" y="0.5" fill="none" stroke="#000000" width="1296" height="955.6"/> 
	</g>
</svg>
