<?xml version="1.0" encoding="utf-8"?>
<!-- Generator: Adobe Illustrator 11.0, SVG Export Plug-In  -->
<!DOCTYPE svg PUBLIC "-//W3C//DTD SVG 1.0//EN"    "http://www.w3.org/TR/2001/REC-SVG-20010904/DTD/svg10.dtd" [
	<!ENTITY ns_flows "http://ns.adobe.com/Flows/1.0/">
	<!ENTITY ns_svg "http://www.w3.org/2000/svg">
	<!ENTITY ns_xlink "http://www.w3.org/1999/xlink">
]>
<svg  xmlns="&ns_svg;" xmlns:xlink="&ns_xlink;" xmlns:a="http://ns.adobe.com/AdobeSVGViewerExtensions/3.0/"
	 width="1296" height="955" viewBox="0.309 0.937 1296 955" xml:space="preserve">
	<defs>
	</defs>
	<g>
		<path fill="#B44A35" stroke="#000000" d="M1229.245,563.617c0,0,3.481-1.116,5.175-5.304c1.695-4.187,2.407-6.412,2.051-8.086
			c-0.357-1.677-0.016-6.585,0.3-8.337c0.314-1.75,0.702-4.395,0.412-4.64c-2.035-1.723-4.676-3.369-4.676-3.369l-10.368,9.198
			l-3.367,10.323l-0.267,5.512C1218.505,558.915,1222.607,564.775,1229.245,563.617z"/>
		<path fill="#FFFFFF" d="M1220.458,550.223c0,0,1.577,6.229,13.956,7.487c0.229,0.022-0.983,2.094-1.847,2.845
			c-0.556,0.48-1.821,1.561-3.598,2.463c-1.552,0.788-8.951-2.197-9.467-6.359C1218.928,552.035,1220.14,550.601,1220.458,550.223z"
			/>
		<ellipse fill="#DFBE19" cx="1230.435" cy="548.422" rx="4.87" ry="3.324"/> 
		<path fill="#DFBE19" d="M1219.867,551.306c0,0,1.776,6.158,14.156,7.417c0.229,0.023-1.183,2.164-2.049,2.914
			c-0.553,0.479-1.818,1.561-3.597,2.463c-1.552,0.789-8.949-2.196-9.467-6.358C1218.335,553.116,1219.547,551.682,1219.867,551.306
			z"/>
		<path fill="#FFFFFF" stroke="#000000" d="M1191.033,557.731c0,0-1.393,3.243-1.475,3.961c-0.081,0.718-4.877,4.182-6.298,5.094
			c-1.421,0.914-13.689,8.412-13.948,9.221c-0.259,0.811,0.067,2.468,4.5,1.826c1.185-0.173,20.734-11.275,20.734-11.275
			s4.293-1.723,15.305,6.082c0.498,0.351,8.888,8.847,8.888,8.847l0.579-0.275l-8.392-8.586c0,0,0.068-1.702,1.411-1.719
			c1.345-0.017,4.839,0.118,5.463-0.069c0.626-0.186,7.118,10.573,7.118,10.573l0.629-0.008l-6.853-10.755
			c0,0,4.909-2.442,6.935-4.207c2.216-1.931,2.885-2.017,3.55-2.642c0.267-0.25-9.71-1.474-10.104-5.787
			c-0.285-3.132-0.159-3.806,0.821-6.103c1.858-4.357,0.933-4.221,0.933-4.221L1191.033,557.731z"/>
		<path fill="#FFFFFF" stroke="#000000" d="M1234.921,531.298c0,0,4.178-2.469,5.125-2.303c0.946,0.168-0.163,0.63-0.163,0.63
			s-4.439,1.626-6.982,5.104c-1.52,2.079-0.073,1.074-0.073,1.074s6.063-3.12,7.104-2.236c0.521,0.44-0.509,0.543-0.852,0.547
			c-0.345,0.004-3.848,1.571-4.257,3.189c-0.408,1.617-3.788-0.85-3.788-0.85l-1.872,1.546c0,0-7.846,4.667-8.351,5.479
			c-0.505,0.813-0.729,3.415-1.578,4.23c-0.851,0.815-1.41,4.137-1.578,4.498c-0.167,0.36-3.666,2.195-7.52,3.049
			c-3.855,0.854-12.965,0.61-15.879,1.094c-2.914,0.484-10.679,4.701-11.704,5.161c-1.024,0.46,0.158-1.077,0.578-1.62
			c0.426-0.542,6.984-5.013,7.921-5.651s-0.104-1.432,2.373-2.63c2.195-1.057,0.646-1.144,2.127-1.727
			c1.878-0.741,1.604-2.169,3.231-2.549c1.509-0.35,1.437-1.898,3.318-2.549c1.632-0.565,1.793-1.009,1.793-1.009
			s1.943-2.531,2.889-2.543s5.626-3.385,7.409-5.198c1.781-1.813,3.212-4.161,5.429-5.531
			C1221.837,529.133,1226.789,526.652,1234.921,531.298z"/>
		<path fill="none" stroke="#000000" d="M1191.173,554.594c0,0,9.198-2.442,14.764-1.525"/>
		<path fill="none" stroke="#000000" d="M1193.827,551.785c0,0,11.166-2.468,14.857-0.901"/>
		<path fill="none" stroke="#000000" d="M1196.668,549.778c0,0,7.939-2.785,12.888-0.965"/>
		<path fill="none" stroke="#000000" d="M1200.04,547.228c0,0,7.496-2.331,10.023-0.84"/>
		<path fill="none" stroke="#000000" d="M1204.307,544.488c0,0,6.868-2.324,12.725,0.292"/>
		<path fill="none" stroke="#000000" d="M1170.401,577.069c0,0,9.231-6.834,13.771-9.039"/>
		<path fill="none" stroke="#000000" d="M1173.002,577.395c0,0,6.837-4.922,12.271-7.497"/>
		<circle cx="1229.574" cy="533.111" r="1.444"/> 
		<circle fill="#FFFFFF" cx="1229.773" cy="532.976" r="0.437"/> 
		<rect x="0.5" y="0.5" fill="none" stroke="#000000" width="1295.809" height="955.437"/> 
	</g>
</svg>
